<?xml version="1.0" encoding="UTF-8" standalone="no"?>
<!DOCTYPE svg PUBLIC "-//W3C//DTD SVG 1.1//EN"
 "http://www.w3.org/Graphics/SVG/1.1/DTD/svg11.dtd">
<!-- Generated by graphviz version 2.47.3 (20210619.1520)
 -->
<!-- Title: dependencies Pages: 1 -->
<svg width="458pt" height="174pt"
 viewBox="0.00 0.00 458.00 173.80" xmlns="http://www.w3.org/2000/svg" xmlns:xlink="http://www.w3.org/1999/xlink">
<g id="graph0" class="graph" transform="scale(1 1) rotate(0) translate(4 169.8)">
<title>dependencies</title>
<polygon fill="white" stroke="transparent" points="-4,4 -4,-169.8 454,-169.8 454,4 -4,4"/>
<text text-anchor="middle" x="225" y="-8.2" font-family="sans-serif" font-size="14.00">dependencies</text>
<g id="clust1" class="cluster">
<title>cluster_CompareModule</title>
<polygon fill="none" stroke="black" stroke-dasharray="1,5" points="8,-32.8 8,-157.8 442,-157.8 442,-32.8 8,-32.8"/>
</g>
<g id="clust4" class="cluster">
<title>cluster_CompareModule_imports</title>
<polygon fill="none" stroke="black" points="212,-40.8 212,-92.8 434,-92.8 434,-40.8 212,-40.8"/>
</g>
<g id="clust2" class="cluster">
<title>cluster_CompareModule_declarations</title>
<polygon fill="none" stroke="black" points="16,-40.8 16,-92.8 204,-92.8 204,-40.8 16,-40.8"/>
</g>
<!-- CompareLayoutComponent -->
<g id="node1" class="node">
<title>CompareLayoutComponent</title>
<polygon fill="#ffffb3" stroke="black" points="196.31,-84.8 23.69,-84.8 23.69,-48.8 196.31,-48.8 196.31,-84.8"/>
<text text-anchor="middle" x="110" y="-62.6" font-family="Times,serif" font-size="14.00">CompareLayoutComponent</text>
</g>
<!-- CompareModule -->
<g id="node2" class="node">
<title>CompareModule</title>
<polygon fill="#8dd3c7" stroke="black" points="325.37,-149.8 322.37,-153.8 301.37,-153.8 298.37,-149.8 214.63,-149.8 214.63,-113.8 325.37,-113.8 325.37,-149.8"/>
<text text-anchor="middle" x="270" y="-127.6" font-family="Times,serif" font-size="14.00">CompareModule</text>
</g>
<!-- CompareLayoutComponent&#45;&gt;CompareModule -->
<g id="edge1" class="edge">
<title>CompareLayoutComponent&#45;&gt;CompareModule</title>
<path fill="none" stroke="black" d="M110,-84.91C110,-104.14 110,-131.8 110,-131.8 110,-131.8 204.49,-131.8 204.49,-131.8"/>
<polygon fill="black" stroke="black" points="204.49,-135.3 214.49,-131.8 204.49,-128.3 204.49,-135.3"/>
</g>
<!-- AlertModule -->
<g id="node3" class="node">
<title>AlertModule</title>
<polygon fill="#8dd3c7" stroke="black" points="426.31,-84.8 423.31,-88.8 402.31,-88.8 399.31,-84.8 337.69,-84.8 337.69,-48.8 426.31,-48.8 426.31,-84.8"/>
<text text-anchor="middle" x="382" y="-62.6" font-family="Times,serif" font-size="14.00">AlertModule</text>
</g>
<!-- AlertModule&#45;&gt;CompareModule -->
<g id="edge2" class="edge">
<title>AlertModule&#45;&gt;CompareModule</title>
<path fill="none" stroke="black" d="M382,-84.91C382,-104.14 382,-131.8 382,-131.8 382,-131.8 335.67,-131.8 335.67,-131.8"/>
<polygon fill="black" stroke="black" points="335.67,-128.3 325.67,-131.8 335.67,-135.3 335.67,-128.3"/>
</g>
<!-- PricingModule -->
<g id="node4" class="node">
<title>PricingModule</title>
<polygon fill="#8dd3c7" stroke="black" points="319.99,-84.8 316.99,-88.8 295.99,-88.8 292.99,-84.8 220.01,-84.8 220.01,-48.8 319.99,-48.8 319.99,-84.8"/>
<text text-anchor="middle" x="270" y="-62.6" font-family="Times,serif" font-size="14.00">PricingModule</text>
</g>
<!-- PricingModule&#45;&gt;CompareModule -->
<g id="edge3" class="edge">
<title>PricingModule&#45;&gt;CompareModule</title>
<path fill="none" stroke="black" d="M270,-84.91C270,-84.91 270,-103.79 270,-103.79"/>
<polygon fill="black" stroke="black" points="266.5,-103.79 270,-113.79 273.5,-103.79 266.5,-103.79"/>
</g>
</g>
</svg>
