<?xml version="1.0" encoding="UTF-8" standalone="no"?>
<!DOCTYPE svg PUBLIC "-//W3C//DTD SVG 1.1//EN"
 "http://www.w3.org/Graphics/SVG/1.1/DTD/svg11.dtd">
<!-- Generated by graphviz version 2.47.3 (20210619.1520)
 -->
<!-- Title: dependencies Pages: 1 -->
<svg width="602pt" height="247pt"
 viewBox="0.00 0.00 602.00 246.80" xmlns="http://www.w3.org/2000/svg" xmlns:xlink="http://www.w3.org/1999/xlink">
<g id="graph0" class="graph" transform="scale(1 1) rotate(0) translate(4 242.8)">
<title>dependencies</title>
<polygon fill="white" stroke="transparent" points="-4,4 -4,-242.8 598,-242.8 598,4 -4,4"/>
<text text-anchor="middle" x="297" y="-8.2" font-family="sans-serif" font-size="14.00">dependencies</text>
<g id="clust1" class="cluster">
<title>cluster_PaymentModule</title>
<polygon fill="none" stroke="black" stroke-dasharray="1,5" points="8,-32.8 8,-230.8 586,-230.8 586,-32.8 8,-32.8"/>
</g>
<g id="clust5" class="cluster">
<title>cluster_PaymentModule_imports</title>
<polygon fill="none" stroke="black" points="408,-40.8 408,-92.8 578,-92.8 578,-40.8 408,-40.8"/>
</g>
<g id="clust2" class="cluster">
<title>cluster_PaymentModule_declarations</title>
<polygon fill="none" stroke="black" points="16,-40.8 16,-92.8 400,-92.8 400,-40.8 16,-40.8"/>
</g>
<g id="clust6" class="cluster">
<title>cluster_PaymentModule_exports</title>
<polygon fill="none" stroke="black" points="212,-170.8 212,-222.8 402,-222.8 402,-170.8 212,-170.8"/>
</g>
<!-- PaymentDetailsComponent -->
<g id="node1" class="node">
<title>PaymentDetailsComponent</title>
<polygon fill="#ffffb3" stroke="black" points="391.98,-84.8 222.02,-84.8 222.02,-48.8 391.98,-48.8 391.98,-84.8"/>
<text text-anchor="middle" x="307" y="-62.6" font-family="Times,serif" font-size="14.00">PaymentDetailsComponent</text>
</g>
<!-- PaymentModule -->
<g id="node3" class="node">
<title>PaymentModule</title>
<polygon fill="#8dd3c7" stroke="black" points="361.04,-149.8 358.04,-153.8 337.04,-153.8 334.04,-149.8 252.96,-149.8 252.96,-113.8 361.04,-113.8 361.04,-149.8"/>
<text text-anchor="middle" x="307" y="-127.6" font-family="Times,serif" font-size="14.00">PaymentModule</text>
</g>
<!-- PaymentDetailsComponent&#45;&gt;PaymentModule -->
<g id="edge1" class="edge">
<title>PaymentDetailsComponent&#45;&gt;PaymentModule</title>
<path fill="none" stroke="black" d="M307,-84.91C307,-84.91 307,-103.79 307,-103.79"/>
<polygon fill="black" stroke="black" points="303.5,-103.79 307,-113.79 310.5,-103.79 303.5,-103.79"/>
</g>
<!-- PaymentMessageComponent -->
<g id="node2" class="node">
<title>PaymentMessageComponent</title>
<polygon fill="#ffffb3" stroke="black" points="203.8,-84.8 24.2,-84.8 24.2,-48.8 203.8,-48.8 203.8,-84.8"/>
<text text-anchor="middle" x="114" y="-62.6" font-family="Times,serif" font-size="14.00">PaymentMessageComponent</text>
</g>
<!-- PaymentMessageComponent&#45;&gt;PaymentModule -->
<g id="edge2" class="edge">
<title>PaymentMessageComponent&#45;&gt;PaymentModule</title>
<path fill="none" stroke="black" d="M114,-84.91C114,-104.14 114,-131.8 114,-131.8 114,-131.8 242.73,-131.8 242.73,-131.8"/>
<polygon fill="black" stroke="black" points="242.73,-135.3 252.73,-131.8 242.73,-128.3 242.73,-135.3"/>
</g>
<!-- PaymentDetailsComponent  -->
<g id="node5" class="node">
<title>PaymentDetailsComponent </title>
<polygon fill="#fb8072" stroke="black" points="393.98,-214.8 220.02,-214.8 220.02,-178.8 393.98,-178.8 393.98,-214.8"/>
<text text-anchor="middle" x="307" y="-192.6" font-family="Times,serif" font-size="14.00">PaymentDetailsComponent </text>
</g>
<!-- PaymentModule&#45;&gt;PaymentDetailsComponent  -->
<g id="edge4" class="edge">
<title>PaymentModule&#45;&gt;PaymentDetailsComponent </title>
<path fill="none" stroke="black" stroke-dasharray="5,2" d="M307,-149.91C307,-149.91 307,-168.79 307,-168.79"/>
<polygon fill="black" stroke="black" points="303.5,-168.79 307,-178.79 310.5,-168.79 303.5,-168.79"/>
</g>
<!-- PaymentRoutingModule -->
<g id="node4" class="node">
<title>PaymentRoutingModule</title>
<polygon fill="#8dd3c7" stroke="black" points="569.66,-84.8 566.66,-88.8 545.66,-88.8 542.66,-84.8 416.34,-84.8 416.34,-48.8 569.66,-48.8 569.66,-84.8"/>
<text text-anchor="middle" x="493" y="-62.6" font-family="Times,serif" font-size="14.00">PaymentRoutingModule</text>
</g>
<!-- PaymentRoutingModule&#45;&gt;PaymentModule -->
<g id="edge3" class="edge">
<title>PaymentRoutingModule&#45;&gt;PaymentModule</title>
<path fill="none" stroke="black" d="M493,-84.91C493,-104.14 493,-131.8 493,-131.8 493,-131.8 371.05,-131.8 371.05,-131.8"/>
<polygon fill="black" stroke="black" points="371.05,-128.3 361.05,-131.8 371.05,-135.3 371.05,-128.3"/>
</g>
</g>
</svg>
