<?xml version="1.0" encoding="UTF-8" standalone="no"?>
<!DOCTYPE svg PUBLIC "-//W3C//DTD SVG 1.1//EN"
 "http://www.w3.org/Graphics/SVG/1.1/DTD/svg11.dtd">
<!-- Generated by graphviz version 2.47.3 (20210619.1520)
 -->
<!-- Title: dependencies Pages: 1 -->
<svg width="1606pt" height="247pt"
 viewBox="0.00 0.00 1606.00 246.80" xmlns="http://www.w3.org/2000/svg" xmlns:xlink="http://www.w3.org/1999/xlink">
<g id="graph0" class="graph" transform="scale(1 1) rotate(0) translate(4 242.8)">
<title>dependencies</title>
<polygon fill="white" stroke="transparent" points="-4,4 -4,-242.8 1602,-242.8 1602,4 -4,4"/>
<text text-anchor="middle" x="799" y="-8.2" font-family="sans-serif" font-size="14.00">dependencies</text>
<g id="clust1" class="cluster">
<title>cluster_ComponentModule</title>
<polygon fill="none" stroke="black" stroke-dasharray="1,5" points="8,-32.8 8,-230.8 1590,-230.8 1590,-32.8 8,-32.8"/>
</g>
<g id="clust8" class="cluster">
<title>cluster_ComponentModule_exports</title>
<polygon fill="none" stroke="black" points="646,-170.8 646,-222.8 1266,-222.8 1266,-170.8 646,-170.8"/>
</g>
<g id="clust7" class="cluster">
<title>cluster_ComponentModule_imports</title>
<polygon fill="none" stroke="black" points="668,-40.8 668,-92.8 1582,-92.8 1582,-40.8 668,-40.8"/>
</g>
<g id="clust2" class="cluster">
<title>cluster_ComponentModule_declarations</title>
<polygon fill="none" stroke="black" points="16,-40.8 16,-92.8 660,-92.8 660,-40.8 16,-40.8"/>
</g>
<!-- ActionBarComponent -->
<g id="node1" class="node">
<title>ActionBarComponent</title>
<polygon fill="#ffffb3" stroke="black" points="651.65,-84.8 512.35,-84.8 512.35,-48.8 651.65,-48.8 651.65,-84.8"/>
<text text-anchor="middle" x="582" y="-62.6" font-family="Times,serif" font-size="14.00">ActionBarComponent</text>
</g>
<!-- ComponentModule -->
<g id="node5" class="node">
<title>ComponentModule</title>
<polygon fill="#8dd3c7" stroke="black" points="1007.38,-149.8 1004.38,-153.8 983.38,-153.8 980.38,-149.8 882.62,-149.8 882.62,-113.8 1007.38,-113.8 1007.38,-149.8"/>
<text text-anchor="middle" x="945" y="-127.6" font-family="Times,serif" font-size="14.00">ComponentModule</text>
</g>
<!-- ActionBarComponent&#45;&gt;ComponentModule -->
<g id="edge1" class="edge">
<title>ActionBarComponent&#45;&gt;ComponentModule</title>
<path fill="none" stroke="black" d="M582,-84.83C582,-101.86 582,-124.8 582,-124.8 582,-124.8 872.6,-124.8 872.6,-124.8"/>
<polygon fill="black" stroke="black" points="872.6,-128.3 882.6,-124.8 872.6,-121.3 872.6,-128.3"/>
</g>
<!-- CategoryCarouselComponent -->
<g id="node2" class="node">
<title>CategoryCarouselComponent</title>
<polygon fill="#ffffb3" stroke="black" points="494.41,-84.8 311.59,-84.8 311.59,-48.8 494.41,-48.8 494.41,-84.8"/>
<text text-anchor="middle" x="403" y="-62.6" font-family="Times,serif" font-size="14.00">CategoryCarouselComponent</text>
</g>
<!-- CategoryCarouselComponent&#45;&gt;ComponentModule -->
<g id="edge2" class="edge">
<title>CategoryCarouselComponent&#45;&gt;ComponentModule</title>
<path fill="none" stroke="black" d="M403,-85.02C403,-103.63 403,-129.8 403,-129.8 403,-129.8 872.56,-129.8 872.56,-129.8"/>
<polygon fill="black" stroke="black" points="872.56,-133.3 882.56,-129.8 872.56,-126.3 872.56,-133.3"/>
</g>
<!-- HeaderComponent -->
<g id="node3" class="node">
<title>HeaderComponent</title>
<polygon fill="#ffffb3" stroke="black" points="293.74,-84.8 172.26,-84.8 172.26,-48.8 293.74,-48.8 293.74,-84.8"/>
<text text-anchor="middle" x="233" y="-62.6" font-family="Times,serif" font-size="14.00">HeaderComponent</text>
</g>
<!-- HeaderComponent&#45;&gt;ComponentModule -->
<g id="edge3" class="edge">
<title>HeaderComponent&#45;&gt;ComponentModule</title>
<path fill="none" stroke="black" d="M233,-85.02C233,-105.17 233,-134.8 233,-134.8 233,-134.8 872.44,-134.8 872.44,-134.8"/>
<polygon fill="black" stroke="black" points="872.44,-138.3 882.44,-134.8 872.44,-131.3 872.44,-138.3"/>
</g>
<!-- ProgressComponent -->
<g id="node4" class="node">
<title>ProgressComponent</title>
<polygon fill="#ffffb3" stroke="black" points="153.54,-84.8 24.46,-84.8 24.46,-48.8 153.54,-48.8 153.54,-84.8"/>
<text text-anchor="middle" x="89" y="-62.6" font-family="Times,serif" font-size="14.00">ProgressComponent</text>
</g>
<!-- ProgressComponent&#45;&gt;ComponentModule -->
<g id="edge4" class="edge">
<title>ProgressComponent&#45;&gt;ComponentModule</title>
<path fill="none" stroke="black" d="M89,-84.84C89,-106.46 89,-139.8 89,-139.8 89,-139.8 872.4,-139.8 872.4,-139.8"/>
<polygon fill="black" stroke="black" points="872.4,-143.3 882.4,-139.8 872.4,-136.3 872.4,-143.3"/>
</g>
<!-- ActionBarComponent  -->
<g id="node12" class="node">
<title>ActionBarComponent </title>
<polygon fill="#fb8072" stroke="black" points="1257.65,-214.8 1114.35,-214.8 1114.35,-178.8 1257.65,-178.8 1257.65,-214.8"/>
<text text-anchor="middle" x="1186" y="-192.6" font-family="Times,serif" font-size="14.00">ActionBarComponent </text>
</g>
<!-- ComponentModule&#45;&gt;ActionBarComponent  -->
<g id="edge12" class="edge">
<title>ComponentModule&#45;&gt;ActionBarComponent </title>
<path fill="none" stroke="black" stroke-dasharray="5,2" d="M1007.43,-144.8C1059.15,-144.8 1124.21,-144.8 1124.21,-144.8 1124.21,-144.8 1124.21,-168.61 1124.21,-168.61"/>
<polygon fill="black" stroke="black" points="1120.71,-168.61 1124.21,-178.61 1127.71,-168.61 1120.71,-168.61"/>
</g>
<!-- ConstraintRuleModule  -->
<g id="node13" class="node">
<title>ConstraintRuleModule </title>
<polygon fill="#fb8072" stroke="black" points="1096.82,-214.8 949.18,-214.8 949.18,-178.8 1096.82,-178.8 1096.82,-214.8"/>
<text text-anchor="middle" x="1023" y="-192.6" font-family="Times,serif" font-size="14.00">ConstraintRuleModule </text>
</g>
<!-- ComponentModule&#45;&gt;ConstraintRuleModule  -->
<g id="edge13" class="edge">
<title>ComponentModule&#45;&gt;ConstraintRuleModule </title>
<path fill="none" stroke="black" stroke-dasharray="5,2" d="M978.27,-149.91C978.27,-149.91 978.27,-168.79 978.27,-168.79"/>
<polygon fill="black" stroke="black" points="974.77,-168.79 978.27,-178.79 981.77,-168.79 974.77,-168.79"/>
</g>
<!-- HeaderComponent  -->
<g id="node14" class="node">
<title>HeaderComponent </title>
<polygon fill="#fb8072" stroke="black" points="930.74,-214.8 805.26,-214.8 805.26,-178.8 930.74,-178.8 930.74,-214.8"/>
<text text-anchor="middle" x="868" y="-192.6" font-family="Times,serif" font-size="14.00">HeaderComponent </text>
</g>
<!-- ComponentModule&#45;&gt;HeaderComponent  -->
<g id="edge14" class="edge">
<title>ComponentModule&#45;&gt;HeaderComponent </title>
<path fill="none" stroke="black" stroke-dasharray="5,2" d="M906.59,-149.91C906.59,-149.91 906.59,-168.79 906.59,-168.79"/>
<polygon fill="black" stroke="black" points="903.09,-168.79 906.59,-178.79 910.09,-168.79 903.09,-168.79"/>
</g>
<!-- ProgressComponent  -->
<g id="node15" class="node">
<title>ProgressComponent </title>
<polygon fill="#fb8072" stroke="black" points="787.54,-214.8 654.46,-214.8 654.46,-178.8 787.54,-178.8 787.54,-214.8"/>
<text text-anchor="middle" x="721" y="-192.6" font-family="Times,serif" font-size="14.00">ProgressComponent </text>
</g>
<!-- ComponentModule&#45;&gt;ProgressComponent  -->
<g id="edge15" class="edge">
<title>ComponentModule&#45;&gt;ProgressComponent </title>
<path fill="none" stroke="black" stroke-dasharray="5,2" d="M882.46,-144.8C819.53,-144.8 731.74,-144.8 731.74,-144.8 731.74,-144.8 731.74,-168.61 731.74,-168.61"/>
<polygon fill="black" stroke="black" points="728.24,-168.61 731.74,-178.61 735.24,-168.61 728.24,-168.61"/>
</g>
<!-- ConstraintRuleModule -->
<g id="node6" class="node">
<title>ConstraintRuleModule</title>
<polygon fill="#8dd3c7" stroke="black" points="1574.32,-84.8 1571.32,-88.8 1550.32,-88.8 1547.32,-84.8 1429.68,-84.8 1429.68,-48.8 1574.32,-48.8 1574.32,-84.8"/>
<text text-anchor="middle" x="1502" y="-62.6" font-family="Times,serif" font-size="14.00">ConstraintRuleModule</text>
</g>
<!-- ConstraintRuleModule&#45;&gt;ComponentModule -->
<g id="edge5" class="edge">
<title>ConstraintRuleModule&#45;&gt;ComponentModule</title>
<path fill="none" stroke="black" d="M1477.95,-85.02C1477.95,-105.17 1477.95,-134.8 1477.95,-134.8 1477.95,-134.8 1017.44,-134.8 1017.44,-134.8"/>
<polygon fill="black" stroke="black" points="1017.44,-131.3 1007.44,-134.8 1017.44,-138.3 1017.44,-131.3"/>
</g>
<!-- ConstraintRuleModule&#45;&gt;ComponentModule -->
<g id="edge6" class="edge">
<title>ConstraintRuleModule&#45;&gt;ComponentModule</title>
<path fill="none" stroke="black" d="M1526.05,-84.84C1526.05,-106.46 1526.05,-139.8 1526.05,-139.8 1526.05,-139.8 1017.46,-139.8 1017.46,-139.8"/>
<polygon fill="black" stroke="black" points="1017.46,-136.3 1007.46,-139.8 1017.46,-143.3 1017.46,-136.3"/>
</g>
<!-- DirectivesModule -->
<g id="node7" class="node">
<title>DirectivesModule</title>
<polygon fill="#8dd3c7" stroke="black" points="1411.58,-84.8 1408.58,-88.8 1387.58,-88.8 1384.58,-84.8 1294.42,-84.8 1294.42,-48.8 1411.58,-48.8 1411.58,-84.8"/>
<text text-anchor="middle" x="1353" y="-62.6" font-family="Times,serif" font-size="14.00">DirectivesModule</text>
</g>
<!-- DirectivesModule&#45;&gt;ComponentModule -->
<g id="edge7" class="edge">
<title>DirectivesModule&#45;&gt;ComponentModule</title>
<path fill="none" stroke="black" d="M1353,-85.02C1353,-103.63 1353,-129.8 1353,-129.8 1353,-129.8 1017.41,-129.8 1017.41,-129.8"/>
<polygon fill="black" stroke="black" points="1017.41,-126.3 1007.41,-129.8 1017.41,-133.3 1017.41,-126.3"/>
</g>
<!-- PriceModalModule -->
<g id="node8" class="node">
<title>PriceModalModule</title>
<polygon fill="#8dd3c7" stroke="black" points="1276.36,-84.8 1273.36,-88.8 1252.36,-88.8 1249.36,-84.8 1151.64,-84.8 1151.64,-48.8 1276.36,-48.8 1276.36,-84.8"/>
<text text-anchor="middle" x="1214" y="-62.6" font-family="Times,serif" font-size="14.00">PriceModalModule</text>
</g>
<!-- PriceModalModule&#45;&gt;ComponentModule -->
<g id="edge8" class="edge">
<title>PriceModalModule&#45;&gt;ComponentModule</title>
<path fill="none" stroke="black" d="M1204.57,-84.83C1204.57,-101.86 1204.57,-124.8 1204.57,-124.8 1204.57,-124.8 1017.5,-124.8 1017.5,-124.8"/>
<polygon fill="black" stroke="black" points="1017.5,-121.3 1007.5,-124.8 1017.5,-128.3 1017.5,-121.3"/>
</g>
<!-- PricingModule -->
<g id="node9" class="node">
<title>PricingModule</title>
<polygon fill="#8dd3c7" stroke="black" points="1133.99,-84.8 1130.99,-88.8 1109.99,-88.8 1106.99,-84.8 1034.01,-84.8 1034.01,-48.8 1133.99,-48.8 1133.99,-84.8"/>
<text text-anchor="middle" x="1084" y="-62.6" font-family="Times,serif" font-size="14.00">PricingModule</text>
</g>
<!-- PricingModule&#45;&gt;ComponentModule -->
<g id="edge9" class="edge">
<title>PricingModule&#45;&gt;ComponentModule</title>
<path fill="none" stroke="black" d="M1065.46,-85.04C1065.46,-100.37 1065.46,-119.8 1065.46,-119.8 1065.46,-119.8 1017.7,-119.8 1017.7,-119.8"/>
<polygon fill="black" stroke="black" points="1017.7,-116.3 1007.7,-119.8 1017.7,-123.3 1017.7,-116.3"/>
</g>
<!-- ProductSearchModule -->
<g id="node10" class="node">
<title>ProductSearchModule</title>
<polygon fill="#8dd3c7" stroke="black" points="1015.69,-84.8 1012.69,-88.8 991.69,-88.8 988.69,-84.8 874.31,-84.8 874.31,-48.8 1015.69,-48.8 1015.69,-84.8"/>
<text text-anchor="middle" x="945" y="-62.6" font-family="Times,serif" font-size="14.00">ProductSearchModule</text>
</g>
<!-- ProductSearchModule&#45;&gt;ComponentModule -->
<g id="edge10" class="edge">
<title>ProductSearchModule&#45;&gt;ComponentModule</title>
<path fill="none" stroke="black" d="M945,-84.91C945,-84.91 945,-103.79 945,-103.79"/>
<polygon fill="black" stroke="black" points="941.5,-103.79 945,-113.79 948.5,-103.79 941.5,-103.79"/>
</g>
<!-- RevalidateCartModalModule -->
<g id="node11" class="node">
<title>RevalidateCartModalModule</title>
<polygon fill="#8dd3c7" stroke="black" points="856.07,-84.8 853.07,-88.8 832.07,-88.8 829.07,-84.8 675.93,-84.8 675.93,-48.8 856.07,-48.8 856.07,-84.8"/>
<text text-anchor="middle" x="766" y="-62.6" font-family="Times,serif" font-size="14.00">RevalidateCartModalModule</text>
</g>
<!-- RevalidateCartModalModule&#45;&gt;ComponentModule -->
<g id="edge11" class="edge">
<title>RevalidateCartModalModule&#45;&gt;ComponentModule</title>
<path fill="none" stroke="black" d="M830.71,-85.04C830.71,-100.37 830.71,-119.8 830.71,-119.8 830.71,-119.8 872.5,-119.8 872.5,-119.8"/>
<polygon fill="black" stroke="black" points="872.5,-123.3 882.5,-119.8 872.5,-116.3 872.5,-123.3"/>
</g>
</g>
</svg>
