<?xml version="1.0" encoding="UTF-8" standalone="no"?>
<!DOCTYPE svg PUBLIC "-//W3C//DTD SVG 1.1//EN"
 "http://www.w3.org/Graphics/SVG/1.1/DTD/svg11.dtd">
<!-- Generated by graphviz version 2.47.3 (20210619.1520)
 -->
<!-- Title: dependencies Pages: 1 -->
<svg width="1080pt" height="174pt"
 viewBox="0.00 0.00 1080.00 173.80" xmlns="http://www.w3.org/2000/svg" xmlns:xlink="http://www.w3.org/1999/xlink">
<g id="graph0" class="graph" transform="scale(1 1) rotate(0) translate(4 169.8)">
<title>dependencies</title>
<polygon fill="white" stroke="transparent" points="-4,4 -4,-169.8 1076,-169.8 1076,4 -4,4"/>
<text text-anchor="middle" x="536" y="-8.2" font-family="sans-serif" font-size="14.00">dependencies</text>
<g id="clust1" class="cluster">
<title>cluster_QuotesModule</title>
<polygon fill="none" stroke="black" stroke-dasharray="1,5" points="8,-32.8 8,-157.8 1064,-157.8 1064,-32.8 8,-32.8"/>
</g>
<g id="clust2" class="cluster">
<title>cluster_QuotesModule_declarations</title>
<polygon fill="none" stroke="black" points="734,-40.8 734,-92.8 1056,-92.8 1056,-40.8 734,-40.8"/>
</g>
<g id="clust5" class="cluster">
<title>cluster_QuotesModule_imports</title>
<polygon fill="none" stroke="black" points="16,-40.8 16,-92.8 726,-92.8 726,-40.8 16,-40.8"/>
</g>
<!-- QuoteDetailComponent -->
<g id="node1" class="node">
<title>QuoteDetailComponent</title>
<polygon fill="#ffffb3" stroke="black" points="1047.75,-84.8 898.25,-84.8 898.25,-48.8 1047.75,-48.8 1047.75,-84.8"/>
<text text-anchor="middle" x="973" y="-62.6" font-family="Times,serif" font-size="14.00">QuoteDetailComponent</text>
</g>
<!-- QuotesModule -->
<g id="node3" class="node">
<title>QuotesModule</title>
<polygon fill="#8dd3c7" stroke="black" points="548.71,-149.8 545.71,-153.8 524.71,-153.8 521.71,-149.8 449.29,-149.8 449.29,-113.8 548.71,-113.8 548.71,-149.8"/>
<text text-anchor="middle" x="499" y="-127.6" font-family="Times,serif" font-size="14.00">QuotesModule</text>
</g>
<!-- QuoteDetailComponent&#45;&gt;QuotesModule -->
<g id="edge1" class="edge">
<title>QuoteDetailComponent&#45;&gt;QuotesModule</title>
<path fill="none" stroke="black" d="M973,-85.09C973,-107.01 973,-140.8 973,-140.8 973,-140.8 558.83,-140.8 558.83,-140.8"/>
<polygon fill="black" stroke="black" points="558.83,-137.3 548.83,-140.8 558.83,-144.3 558.83,-137.3"/>
</g>
<!-- QuoteListComponent -->
<g id="node2" class="node">
<title>QuoteListComponent</title>
<polygon fill="#ffffb3" stroke="black" points="879.82,-84.8 742.18,-84.8 742.18,-48.8 879.82,-48.8 879.82,-84.8"/>
<text text-anchor="middle" x="811" y="-62.6" font-family="Times,serif" font-size="14.00">QuoteListComponent</text>
</g>
<!-- QuoteListComponent&#45;&gt;QuotesModule -->
<g id="edge2" class="edge">
<title>QuoteListComponent&#45;&gt;QuotesModule</title>
<path fill="none" stroke="black" d="M811,-84.91C811,-104.14 811,-131.8 811,-131.8 811,-131.8 558.78,-131.8 558.78,-131.8"/>
<polygon fill="black" stroke="black" points="558.78,-128.3 548.78,-131.8 558.78,-135.3 558.78,-128.3"/>
</g>
<!-- DataFilterModule -->
<g id="node4" class="node">
<title>DataFilterModule</title>
<polygon fill="#8dd3c7" stroke="black" points="718.31,-84.8 715.31,-88.8 694.31,-88.8 691.31,-84.8 601.69,-84.8 601.69,-48.8 718.31,-48.8 718.31,-84.8"/>
<text text-anchor="middle" x="660" y="-62.6" font-family="Times,serif" font-size="14.00">DataFilterModule</text>
</g>
<!-- DataFilterModule&#45;&gt;QuotesModule -->
<g id="edge3" class="edge">
<title>DataFilterModule&#45;&gt;QuotesModule</title>
<path fill="none" stroke="black" d="M660,-84.83C660,-101.2 660,-122.8 660,-122.8 660,-122.8 558.62,-122.8 558.62,-122.8"/>
<polygon fill="black" stroke="black" points="558.62,-119.3 548.62,-122.8 558.62,-126.3 558.62,-119.3"/>
</g>
<!-- LineItemTableRowModule -->
<g id="node5" class="node">
<title>LineItemTableRowModule</title>
<polygon fill="#8dd3c7" stroke="black" points="583.68,-84.8 580.68,-88.8 559.68,-88.8 556.68,-84.8 414.32,-84.8 414.32,-48.8 583.68,-48.8 583.68,-84.8"/>
<text text-anchor="middle" x="499" y="-62.6" font-family="Times,serif" font-size="14.00">LineItemTableRowModule</text>
</g>
<!-- LineItemTableRowModule&#45;&gt;QuotesModule -->
<g id="edge4" class="edge">
<title>LineItemTableRowModule&#45;&gt;QuotesModule</title>
<path fill="none" stroke="black" d="M499,-84.91C499,-84.91 499,-103.79 499,-103.79"/>
<polygon fill="black" stroke="black" points="495.5,-103.79 499,-113.79 502.5,-103.79 495.5,-103.79"/>
</g>
<!-- PricingModule -->
<g id="node6" class="node">
<title>PricingModule</title>
<polygon fill="#8dd3c7" stroke="black" points="395.99,-84.8 392.99,-88.8 371.99,-88.8 368.99,-84.8 296.01,-84.8 296.01,-48.8 395.99,-48.8 395.99,-84.8"/>
<text text-anchor="middle" x="346" y="-62.6" font-family="Times,serif" font-size="14.00">PricingModule</text>
</g>
<!-- PricingModule&#45;&gt;QuotesModule -->
<g id="edge5" class="edge">
<title>PricingModule&#45;&gt;QuotesModule</title>
<path fill="none" stroke="black" d="M346,-84.83C346,-101.2 346,-122.8 346,-122.8 346,-122.8 439.33,-122.8 439.33,-122.8"/>
<polygon fill="black" stroke="black" points="439.33,-126.3 449.33,-122.8 439.33,-119.3 439.33,-126.3"/>
</g>
<!-- QuotesRoutingModule -->
<g id="node7" class="node">
<title>QuotesRoutingModule</title>
<polygon fill="#8dd3c7" stroke="black" points="278.32,-84.8 275.32,-88.8 254.32,-88.8 251.32,-84.8 133.68,-84.8 133.68,-48.8 278.32,-48.8 278.32,-84.8"/>
<text text-anchor="middle" x="206" y="-62.6" font-family="Times,serif" font-size="14.00">QuotesRoutingModule</text>
</g>
<!-- QuotesRoutingModule&#45;&gt;QuotesModule -->
<g id="edge6" class="edge">
<title>QuotesRoutingModule&#45;&gt;QuotesModule</title>
<path fill="none" stroke="black" d="M206,-84.91C206,-104.14 206,-131.8 206,-131.8 206,-131.8 439.3,-131.8 439.3,-131.8"/>
<polygon fill="black" stroke="black" points="439.3,-135.3 449.3,-131.8 439.3,-128.3 439.3,-135.3"/>
</g>
<!-- TableModule -->
<g id="node8" class="node">
<title>TableModule</title>
<polygon fill="#8dd3c7" stroke="black" points="115.92,-84.8 112.92,-88.8 91.92,-88.8 88.92,-84.8 24.08,-84.8 24.08,-48.8 115.92,-48.8 115.92,-84.8"/>
<text text-anchor="middle" x="70" y="-62.6" font-family="Times,serif" font-size="14.00">TableModule</text>
</g>
<!-- TableModule&#45;&gt;QuotesModule -->
<g id="edge7" class="edge">
<title>TableModule&#45;&gt;QuotesModule</title>
<path fill="none" stroke="black" d="M70,-85.09C70,-107.01 70,-140.8 70,-140.8 70,-140.8 439.37,-140.8 439.37,-140.8"/>
<polygon fill="black" stroke="black" points="439.37,-144.3 449.37,-140.8 439.37,-137.3 439.37,-144.3"/>
</g>
</g>
</svg>
