<?xml version="1.0" encoding="UTF-8" standalone="no"?>
<!DOCTYPE svg PUBLIC "-//W3C//DTD SVG 1.1//EN"
 "http://www.w3.org/Graphics/SVG/1.1/DTD/svg11.dtd">
<!-- Generated by graphviz version 2.47.3 (20210619.1520)
 -->
<!-- Title: dependencies Pages: 1 -->
<svg width="1655pt" height="174pt"
 viewBox="0.00 0.00 1655.00 173.80" xmlns="http://www.w3.org/2000/svg" xmlns:xlink="http://www.w3.org/1999/xlink">
<g id="graph0" class="graph" transform="scale(1 1) rotate(0) translate(4 169.8)">
<title>dependencies</title>
<polygon fill="white" stroke="transparent" points="-4,4 -4,-169.8 1651,-169.8 1651,4 -4,4"/>
<text text-anchor="middle" x="823.5" y="-8.2" font-family="sans-serif" font-size="14.00">dependencies</text>
<g id="clust1" class="cluster">
<title>cluster_ProductsModule</title>
<polygon fill="none" stroke="black" stroke-dasharray="1,5" points="8,-32.8 8,-157.8 1639,-157.8 1639,-32.8 8,-32.8"/>
</g>
<g id="clust2" class="cluster">
<title>cluster_ProductsModule_declarations</title>
<polygon fill="none" stroke="black" points="790,-40.8 790,-92.8 1631,-92.8 1631,-40.8 790,-40.8"/>
</g>
<g id="clust8" class="cluster">
<title>cluster_ProductsModule_imports</title>
<polygon fill="none" stroke="black" points="16,-40.8 16,-92.8 782,-92.8 782,-40.8 16,-40.8"/>
</g>
<!-- ProductDetailComponent -->
<g id="node1" class="node">
<title>ProductDetailComponent</title>
<polygon fill="#ffffb3" stroke="black" points="1622.59,-84.8 1463.41,-84.8 1463.41,-48.8 1622.59,-48.8 1622.59,-84.8"/>
<text text-anchor="middle" x="1543" y="-62.6" font-family="Times,serif" font-size="14.00">ProductDetailComponent</text>
</g>
<!-- ProductsModule -->
<g id="node6" class="node">
<title>ProductsModule</title>
<polygon fill="#8dd3c7" stroke="black" points="855.04,-149.8 852.04,-153.8 831.04,-153.8 828.04,-149.8 746.96,-149.8 746.96,-113.8 855.04,-113.8 855.04,-149.8"/>
<text text-anchor="middle" x="801" y="-127.6" font-family="Times,serif" font-size="14.00">ProductsModule</text>
</g>
<!-- ProductDetailComponent&#45;&gt;ProductsModule -->
<g id="edge1" class="edge">
<title>ProductDetailComponent&#45;&gt;ProductsModule</title>
<path fill="none" stroke="black" d="M1543,-84.81C1543,-107.29 1543,-142.8 1543,-142.8 1543,-142.8 865.26,-142.8 865.26,-142.8"/>
<polygon fill="black" stroke="black" points="865.26,-139.3 855.26,-142.8 865.26,-146.3 865.26,-139.3"/>
</g>
<!-- ProductListComponent -->
<g id="node2" class="node">
<title>ProductListComponent</title>
<polygon fill="#ffffb3" stroke="black" points="1445.16,-84.8 1298.84,-84.8 1298.84,-48.8 1445.16,-48.8 1445.16,-84.8"/>
<text text-anchor="middle" x="1372" y="-62.6" font-family="Times,serif" font-size="14.00">ProductListComponent</text>
</g>
<!-- ProductListComponent&#45;&gt;ProductsModule -->
<g id="edge2" class="edge">
<title>ProductListComponent&#45;&gt;ProductsModule</title>
<path fill="none" stroke="black" d="M1372,-84.93C1372,-105.37 1372,-135.8 1372,-135.8 1372,-135.8 865.23,-135.8 865.23,-135.8"/>
<polygon fill="black" stroke="black" points="865.23,-132.3 855.23,-135.8 865.23,-139.3 865.23,-132.3"/>
</g>
<!-- ResultsComponent -->
<g id="node3" class="node">
<title>ResultsComponent</title>
<polygon fill="#ffffb3" stroke="black" points="1280.05,-84.8 1157.95,-84.8 1157.95,-48.8 1280.05,-48.8 1280.05,-84.8"/>
<text text-anchor="middle" x="1219" y="-62.6" font-family="Times,serif" font-size="14.00">ResultsComponent</text>
</g>
<!-- ResultsComponent&#45;&gt;ProductsModule -->
<g id="edge3" class="edge">
<title>ResultsComponent&#45;&gt;ProductsModule</title>
<path fill="none" stroke="black" d="M1219,-85.07C1219,-103.36 1219,-128.8 1219,-128.8 1219,-128.8 865.22,-128.8 865.22,-128.8"/>
<polygon fill="black" stroke="black" points="865.22,-125.3 855.22,-128.8 865.22,-132.3 865.22,-125.3"/>
</g>
<!-- TabAttachmentsComponent -->
<g id="node4" class="node">
<title>TabAttachmentsComponent</title>
<polygon fill="#ffffb3" stroke="black" points="1139.86,-84.8 966.14,-84.8 966.14,-48.8 1139.86,-48.8 1139.86,-84.8"/>
<text text-anchor="middle" x="1053" y="-62.6" font-family="Times,serif" font-size="14.00">TabAttachmentsComponent</text>
</g>
<!-- TabAttachmentsComponent&#45;&gt;ProductsModule -->
<g id="edge4" class="edge">
<title>TabAttachmentsComponent&#45;&gt;ProductsModule</title>
<path fill="none" stroke="black" d="M1053,-84.81C1053,-100.85 1053,-121.8 1053,-121.8 1053,-121.8 865.06,-121.8 865.06,-121.8"/>
<polygon fill="black" stroke="black" points="865.06,-118.3 855.06,-121.8 865.06,-125.3 865.06,-118.3"/>
</g>
<!-- TabFeaturesComponent -->
<g id="node5" class="node">
<title>TabFeaturesComponent</title>
<polygon fill="#ffffb3" stroke="black" points="948.02,-84.8 797.98,-84.8 797.98,-48.8 948.02,-48.8 948.02,-84.8"/>
<text text-anchor="middle" x="873" y="-62.6" font-family="Times,serif" font-size="14.00">TabFeaturesComponent</text>
</g>
<!-- TabFeaturesComponent&#45;&gt;ProductsModule -->
<g id="edge5" class="edge">
<title>TabFeaturesComponent&#45;&gt;ProductsModule</title>
<path fill="none" stroke="black" d="M826.51,-84.91C826.51,-84.91 826.51,-103.79 826.51,-103.79"/>
<polygon fill="black" stroke="black" points="823.01,-103.79 826.51,-113.79 830.01,-103.79 823.01,-103.79"/>
</g>
<!-- AlertModule -->
<g id="node7" class="node">
<title>AlertModule</title>
<polygon fill="#8dd3c7" stroke="black" points="774.31,-84.8 771.31,-88.8 750.31,-88.8 747.31,-84.8 685.69,-84.8 685.69,-48.8 774.31,-48.8 774.31,-84.8"/>
<text text-anchor="middle" x="730" y="-62.6" font-family="Times,serif" font-size="14.00">AlertModule</text>
</g>
<!-- AlertModule&#45;&gt;ProductsModule -->
<g id="edge6" class="edge">
<title>AlertModule&#45;&gt;ProductsModule</title>
<path fill="none" stroke="black" d="M760.44,-84.91C760.44,-84.91 760.44,-103.79 760.44,-103.79"/>
<polygon fill="black" stroke="black" points="756.94,-103.79 760.44,-113.79 763.94,-103.79 756.94,-103.79"/>
</g>
<!-- ConfigurationSummaryModule -->
<g id="node8" class="node">
<title>ConfigurationSummaryModule</title>
<polygon fill="#8dd3c7" stroke="black" points="668.03,-84.8 665.03,-88.8 644.03,-88.8 641.03,-84.8 475.97,-84.8 475.97,-48.8 668.03,-48.8 668.03,-84.8"/>
<text text-anchor="middle" x="572" y="-62.6" font-family="Times,serif" font-size="14.00">ConfigurationSummaryModule</text>
</g>
<!-- ConfigurationSummaryModule&#45;&gt;ProductsModule -->
<g id="edge7" class="edge">
<title>ConfigurationSummaryModule&#45;&gt;ProductsModule</title>
<path fill="none" stroke="black" d="M572,-84.81C572,-100.85 572,-121.8 572,-121.8 572,-121.8 736.73,-121.8 736.73,-121.8"/>
<polygon fill="black" stroke="black" points="736.73,-125.3 746.73,-121.8 736.73,-118.3 736.73,-125.3"/>
</g>
<!-- ConstraintRuleModule -->
<g id="node9" class="node">
<title>ConstraintRuleModule</title>
<polygon fill="#8dd3c7" stroke="black" points="458.32,-84.8 455.32,-88.8 434.32,-88.8 431.32,-84.8 313.68,-84.8 313.68,-48.8 458.32,-48.8 458.32,-84.8"/>
<text text-anchor="middle" x="386" y="-62.6" font-family="Times,serif" font-size="14.00">ConstraintRuleModule</text>
</g>
<!-- ConstraintRuleModule&#45;&gt;ProductsModule -->
<g id="edge8" class="edge">
<title>ConstraintRuleModule&#45;&gt;ProductsModule</title>
<path fill="none" stroke="black" d="M386,-85.07C386,-103.36 386,-128.8 386,-128.8 386,-128.8 736.75,-128.8 736.75,-128.8"/>
<polygon fill="black" stroke="black" points="736.75,-132.3 746.75,-128.8 736.75,-125.3 736.75,-132.3"/>
</g>
<!-- PricingModule -->
<g id="node10" class="node">
<title>PricingModule</title>
<polygon fill="#8dd3c7" stroke="black" points="295.99,-84.8 292.99,-88.8 271.99,-88.8 268.99,-84.8 196.01,-84.8 196.01,-48.8 295.99,-48.8 295.99,-84.8"/>
<text text-anchor="middle" x="246" y="-62.6" font-family="Times,serif" font-size="14.00">PricingModule</text>
</g>
<!-- PricingModule&#45;&gt;ProductsModule -->
<g id="edge9" class="edge">
<title>PricingModule&#45;&gt;ProductsModule</title>
<path fill="none" stroke="black" d="M246,-84.93C246,-105.37 246,-135.8 246,-135.8 246,-135.8 736.77,-135.8 736.77,-135.8"/>
<polygon fill="black" stroke="black" points="736.77,-139.3 746.77,-135.8 736.77,-132.3 736.77,-139.3"/>
</g>
<!-- ProductsRoutingModule -->
<g id="node11" class="node">
<title>ProductsRoutingModule</title>
<polygon fill="#8dd3c7" stroke="black" points="177.66,-84.8 174.66,-88.8 153.66,-88.8 150.66,-84.8 24.34,-84.8 24.34,-48.8 177.66,-48.8 177.66,-84.8"/>
<text text-anchor="middle" x="101" y="-62.6" font-family="Times,serif" font-size="14.00">ProductsRoutingModule</text>
</g>
<!-- ProductsRoutingModule&#45;&gt;ProductsModule -->
<g id="edge10" class="edge">
<title>ProductsRoutingModule&#45;&gt;ProductsModule</title>
<path fill="none" stroke="black" d="M101,-84.81C101,-107.29 101,-142.8 101,-142.8 101,-142.8 736.94,-142.8 736.94,-142.8"/>
<polygon fill="black" stroke="black" points="736.94,-146.3 746.94,-142.8 736.94,-139.3 736.94,-146.3"/>
</g>
</g>
</svg>
