<?xml version="1.0" encoding="UTF-8" standalone="no"?>
<!DOCTYPE svg PUBLIC "-//W3C//DTD SVG 1.1//EN"
 "http://www.w3.org/Graphics/SVG/1.1/DTD/svg11.dtd">
<!-- Generated by graphviz version 2.47.3 (20210619.1520)
 -->
<!-- Title: dependencies Pages: 1 -->
<svg width="1123pt" height="174pt"
 viewBox="0.00 0.00 1123.00 173.80" xmlns="http://www.w3.org/2000/svg" xmlns:xlink="http://www.w3.org/1999/xlink">
<g id="graph0" class="graph" transform="scale(1 1) rotate(0) translate(4 169.8)">
<title>dependencies</title>
<polygon fill="white" stroke="transparent" points="-4,4 -4,-169.8 1119,-169.8 1119,4 -4,4"/>
<text text-anchor="middle" x="557.5" y="-8.2" font-family="sans-serif" font-size="14.00">dependencies</text>
<g id="clust1" class="cluster">
<title>cluster_InstalledProductsModule</title>
<polygon fill="none" stroke="black" stroke-dasharray="1,5" points="8,-32.8 8,-157.8 1107,-157.8 1107,-32.8 8,-32.8"/>
</g>
<g id="clust2" class="cluster">
<title>cluster_InstalledProductsModule_declarations</title>
<polygon fill="none" stroke="black" points="652,-40.8 652,-92.8 1099,-92.8 1099,-40.8 652,-40.8"/>
</g>
<g id="clust5" class="cluster">
<title>cluster_InstalledProductsModule_imports</title>
<polygon fill="none" stroke="black" points="16,-40.8 16,-92.8 644,-92.8 644,-40.8 16,-40.8"/>
</g>
<!-- InstalledProductsLayoutComponent -->
<g id="node1" class="node">
<title>InstalledProductsLayoutComponent</title>
<polygon fill="#ffffb3" stroke="black" points="1091.19,-84.8 872.81,-84.8 872.81,-48.8 1091.19,-48.8 1091.19,-84.8"/>
<text text-anchor="middle" x="982" y="-62.6" font-family="Times,serif" font-size="14.00">InstalledProductsLayoutComponent</text>
</g>
<!-- InstalledProductsModule -->
<g id="node3" class="node">
<title>InstalledProductsModule</title>
<polygon fill="#8dd3c7" stroke="black" points="536.25,-149.8 533.25,-153.8 512.25,-153.8 509.25,-149.8 379.75,-149.8 379.75,-113.8 536.25,-113.8 536.25,-149.8"/>
<text text-anchor="middle" x="458" y="-127.6" font-family="Times,serif" font-size="14.00">InstalledProductsModule</text>
</g>
<!-- InstalledProductsLayoutComponent&#45;&gt;InstalledProductsModule -->
<g id="edge1" class="edge">
<title>InstalledProductsLayoutComponent&#45;&gt;InstalledProductsModule</title>
<path fill="none" stroke="black" d="M982,-85.09C982,-107.01 982,-140.8 982,-140.8 982,-140.8 546.45,-140.8 546.45,-140.8"/>
<polygon fill="black" stroke="black" points="546.45,-137.3 536.45,-140.8 546.45,-144.3 546.45,-137.3"/>
</g>
<!-- ProductFamilyFilterComponent -->
<g id="node2" class="node">
<title>ProductFamilyFilterComponent</title>
<polygon fill="#ffffb3" stroke="black" points="854.38,-84.8 659.62,-84.8 659.62,-48.8 854.38,-48.8 854.38,-84.8"/>
<text text-anchor="middle" x="757" y="-62.6" font-family="Times,serif" font-size="14.00">ProductFamilyFilterComponent</text>
</g>
<!-- ProductFamilyFilterComponent&#45;&gt;InstalledProductsModule -->
<g id="edge2" class="edge">
<title>ProductFamilyFilterComponent&#45;&gt;InstalledProductsModule</title>
<path fill="none" stroke="black" d="M757,-84.91C757,-104.14 757,-131.8 757,-131.8 757,-131.8 546.56,-131.8 546.56,-131.8"/>
<polygon fill="black" stroke="black" points="546.56,-128.3 536.56,-131.8 546.56,-135.3 546.56,-128.3"/>
</g>
<!-- AlertModule -->
<g id="node4" class="node">
<title>AlertModule</title>
<polygon fill="#8dd3c7" stroke="black" points="636.31,-84.8 633.31,-88.8 612.31,-88.8 609.31,-84.8 547.69,-84.8 547.69,-48.8 636.31,-48.8 636.31,-84.8"/>
<text text-anchor="middle" x="592" y="-62.6" font-family="Times,serif" font-size="14.00">AlertModule</text>
</g>
<!-- AlertModule&#45;&gt;InstalledProductsModule -->
<g id="edge3" class="edge">
<title>AlertModule&#45;&gt;InstalledProductsModule</title>
<path fill="none" stroke="black" d="M592,-84.83C592,-101.2 592,-122.8 592,-122.8 592,-122.8 546.34,-122.8 546.34,-122.8"/>
<polygon fill="black" stroke="black" points="546.34,-119.3 536.34,-122.8 546.34,-126.3 546.34,-119.3"/>
</g>
<!-- ConstraintRuleModule -->
<g id="node5" class="node">
<title>ConstraintRuleModule</title>
<polygon fill="#8dd3c7" stroke="black" points="530.32,-84.8 527.32,-88.8 506.32,-88.8 503.32,-84.8 385.68,-84.8 385.68,-48.8 530.32,-48.8 530.32,-84.8"/>
<text text-anchor="middle" x="458" y="-62.6" font-family="Times,serif" font-size="14.00">ConstraintRuleModule</text>
</g>
<!-- ConstraintRuleModule&#45;&gt;InstalledProductsModule -->
<g id="edge4" class="edge">
<title>ConstraintRuleModule&#45;&gt;InstalledProductsModule</title>
<path fill="none" stroke="black" d="M458,-84.91C458,-84.91 458,-103.79 458,-103.79"/>
<polygon fill="black" stroke="black" points="454.5,-103.79 458,-113.79 461.5,-103.79 454.5,-103.79"/>
</g>
<!-- DataFilterModule -->
<g id="node6" class="node">
<title>DataFilterModule</title>
<polygon fill="#8dd3c7" stroke="black" points="368.31,-84.8 365.31,-88.8 344.31,-88.8 341.31,-84.8 251.69,-84.8 251.69,-48.8 368.31,-48.8 368.31,-84.8"/>
<text text-anchor="middle" x="310" y="-62.6" font-family="Times,serif" font-size="14.00">DataFilterModule</text>
</g>
<!-- DataFilterModule&#45;&gt;InstalledProductsModule -->
<g id="edge5" class="edge">
<title>DataFilterModule&#45;&gt;InstalledProductsModule</title>
<path fill="none" stroke="black" d="M310,-84.83C310,-101.2 310,-122.8 310,-122.8 310,-122.8 369.67,-122.8 369.67,-122.8"/>
<polygon fill="black" stroke="black" points="369.67,-126.3 379.67,-122.8 369.67,-119.3 369.67,-126.3"/>
</g>
<!-- PricingModule -->
<g id="node7" class="node">
<title>PricingModule</title>
<polygon fill="#8dd3c7" stroke="black" points="233.99,-84.8 230.99,-88.8 209.99,-88.8 206.99,-84.8 134.01,-84.8 134.01,-48.8 233.99,-48.8 233.99,-84.8"/>
<text text-anchor="middle" x="184" y="-62.6" font-family="Times,serif" font-size="14.00">PricingModule</text>
</g>
<!-- PricingModule&#45;&gt;InstalledProductsModule -->
<g id="edge6" class="edge">
<title>PricingModule&#45;&gt;InstalledProductsModule</title>
<path fill="none" stroke="black" d="M184,-84.91C184,-104.14 184,-131.8 184,-131.8 184,-131.8 369.48,-131.8 369.48,-131.8"/>
<polygon fill="black" stroke="black" points="369.48,-135.3 379.48,-131.8 369.48,-128.3 369.48,-135.3"/>
</g>
<!-- TableModule -->
<g id="node8" class="node">
<title>TableModule</title>
<polygon fill="#8dd3c7" stroke="black" points="115.92,-84.8 112.92,-88.8 91.92,-88.8 88.92,-84.8 24.08,-84.8 24.08,-48.8 115.92,-48.8 115.92,-84.8"/>
<text text-anchor="middle" x="70" y="-62.6" font-family="Times,serif" font-size="14.00">TableModule</text>
</g>
<!-- TableModule&#45;&gt;InstalledProductsModule -->
<g id="edge7" class="edge">
<title>TableModule&#45;&gt;InstalledProductsModule</title>
<path fill="none" stroke="black" d="M70,-85.09C70,-107.01 70,-140.8 70,-140.8 70,-140.8 369.48,-140.8 369.48,-140.8"/>
<polygon fill="black" stroke="black" points="369.48,-144.3 379.48,-140.8 369.48,-137.3 369.48,-144.3"/>
</g>
</g>
</svg>
