<?xml version="1.0" encoding="UTF-8" standalone="no"?>
<!DOCTYPE svg PUBLIC "-//W3C//DTD SVG 1.1//EN"
 "http://www.w3.org/Graphics/SVG/1.1/DTD/svg11.dtd">
<!-- Generated by graphviz version 2.47.3 (20210619.1520)
 -->
<!-- Title: dependencies Pages: 1 -->
<svg width="1733pt" height="174pt"
 viewBox="0.00 0.00 1733.00 173.80" xmlns="http://www.w3.org/2000/svg" xmlns:xlink="http://www.w3.org/1999/xlink">
<g id="graph0" class="graph" transform="scale(1 1) rotate(0) translate(4 169.8)">
<title>dependencies</title>
<polygon fill="white" stroke="transparent" points="-4,4 -4,-169.8 1729,-169.8 1729,4 -4,4"/>
<text text-anchor="middle" x="862.5" y="-8.2" font-family="sans-serif" font-size="14.00">dependencies</text>
<g id="clust1" class="cluster">
<title>cluster_MyAccountModule</title>
<polygon fill="none" stroke="black" stroke-dasharray="1,5" points="8,-32.8 8,-157.8 1717,-157.8 1717,-32.8 8,-32.8"/>
</g>
<g id="clust8" class="cluster">
<title>cluster_MyAccountModule_imports</title>
<polygon fill="none" stroke="black" points="871,-40.8 871,-92.8 1709,-92.8 1709,-40.8 871,-40.8"/>
</g>
<g id="clust2" class="cluster">
<title>cluster_MyAccountModule_declarations</title>
<polygon fill="none" stroke="black" points="16,-40.8 16,-92.8 863,-92.8 863,-40.8 16,-40.8"/>
</g>
<!-- AddressBookComponent -->
<g id="node1" class="node">
<title>AddressBookComponent</title>
<polygon fill="#ffffb3" stroke="black" points="854.54,-84.8 697.46,-84.8 697.46,-48.8 854.54,-48.8 854.54,-84.8"/>
<text text-anchor="middle" x="776" y="-62.6" font-family="Times,serif" font-size="14.00">AddressBookComponent</text>
</g>
<!-- MyAccountModule -->
<g id="node6" class="node">
<title>MyAccountModule</title>
<polygon fill="#8dd3c7" stroke="black" points="988.42,-149.8 985.42,-153.8 964.42,-153.8 961.42,-149.8 861.58,-149.8 861.58,-113.8 988.42,-113.8 988.42,-149.8"/>
<text text-anchor="middle" x="925" y="-127.6" font-family="Times,serif" font-size="14.00">MyAccountModule</text>
</g>
<!-- AddressBookComponent&#45;&gt;MyAccountModule -->
<g id="edge1" class="edge">
<title>AddressBookComponent&#45;&gt;MyAccountModule</title>
<path fill="none" stroke="black" d="M854.93,-66.8C864.26,-66.8 870.54,-66.8 870.54,-66.8 870.54,-66.8 870.54,-103.69 870.54,-103.69"/>
<polygon fill="black" stroke="black" points="867.04,-103.69 870.54,-113.69 874.04,-103.69 867.04,-103.69"/>
</g>
<!-- DashboardComponent -->
<g id="node2" class="node">
<title>DashboardComponent</title>
<polygon fill="#ffffb3" stroke="black" points="678.97,-84.8 537.03,-84.8 537.03,-48.8 678.97,-48.8 678.97,-84.8"/>
<text text-anchor="middle" x="608" y="-62.6" font-family="Times,serif" font-size="14.00">DashboardComponent</text>
</g>
<!-- DashboardComponent&#45;&gt;MyAccountModule -->
<g id="edge2" class="edge">
<title>DashboardComponent&#45;&gt;MyAccountModule</title>
<path fill="none" stroke="black" d="M608,-84.81C608,-100.85 608,-121.8 608,-121.8 608,-121.8 851.61,-121.8 851.61,-121.8"/>
<polygon fill="black" stroke="black" points="851.61,-125.3 861.61,-121.8 851.61,-118.3 851.61,-125.3"/>
</g>
<!-- MyAccountLayoutComponent -->
<g id="node3" class="node">
<title>MyAccountLayoutComponent</title>
<polygon fill="#ffffb3" stroke="black" points="518.86,-84.8 331.14,-84.8 331.14,-48.8 518.86,-48.8 518.86,-84.8"/>
<text text-anchor="middle" x="425" y="-62.6" font-family="Times,serif" font-size="14.00">MyAccountLayoutComponent</text>
</g>
<!-- MyAccountLayoutComponent&#45;&gt;MyAccountModule -->
<g id="edge3" class="edge">
<title>MyAccountLayoutComponent&#45;&gt;MyAccountModule</title>
<path fill="none" stroke="black" d="M425,-85.07C425,-103.36 425,-128.8 425,-128.8 425,-128.8 851.67,-128.8 851.67,-128.8"/>
<polygon fill="black" stroke="black" points="851.67,-132.3 861.67,-128.8 851.67,-125.3 851.67,-132.3"/>
</g>
<!-- QuoteListComponent -->
<g id="node4" class="node">
<title>QuoteListComponent</title>
<polygon fill="#ffffb3" stroke="black" points="312.82,-84.8 175.18,-84.8 175.18,-48.8 312.82,-48.8 312.82,-84.8"/>
<text text-anchor="middle" x="244" y="-62.6" font-family="Times,serif" font-size="14.00">QuoteListComponent</text>
</g>
<!-- QuoteListComponent&#45;&gt;MyAccountModule -->
<g id="edge4" class="edge">
<title>QuoteListComponent&#45;&gt;MyAccountModule</title>
<path fill="none" stroke="black" d="M244,-84.93C244,-105.37 244,-135.8 244,-135.8 244,-135.8 851.54,-135.8 851.54,-135.8"/>
<polygon fill="black" stroke="black" points="851.54,-139.3 861.54,-135.8 851.54,-132.3 851.54,-139.3"/>
</g>
<!-- WishlistsComponent -->
<g id="node5" class="node">
<title>WishlistsComponent</title>
<polygon fill="#ffffb3" stroke="black" points="157.94,-84.8 24.06,-84.8 24.06,-48.8 157.94,-48.8 157.94,-84.8"/>
<text text-anchor="middle" x="91" y="-62.6" font-family="Times,serif" font-size="14.00">WishlistsComponent</text>
</g>
<!-- WishlistsComponent&#45;&gt;MyAccountModule -->
<g id="edge5" class="edge">
<title>WishlistsComponent&#45;&gt;MyAccountModule</title>
<path fill="none" stroke="black" d="M91,-84.81C91,-107.29 91,-142.8 91,-142.8 91,-142.8 851.63,-142.8 851.63,-142.8"/>
<polygon fill="black" stroke="black" points="851.63,-146.3 861.63,-142.8 851.63,-139.3 851.63,-146.3"/>
</g>
<!-- AlertModule -->
<g id="node7" class="node">
<title>AlertModule</title>
<polygon fill="#8dd3c7" stroke="black" points="1701.31,-84.8 1698.31,-88.8 1677.31,-88.8 1674.31,-84.8 1612.69,-84.8 1612.69,-48.8 1701.31,-48.8 1701.31,-84.8"/>
<text text-anchor="middle" x="1657" y="-62.6" font-family="Times,serif" font-size="14.00">AlertModule</text>
</g>
<!-- AlertModule&#45;&gt;MyAccountModule -->
<g id="edge6" class="edge">
<title>AlertModule&#45;&gt;MyAccountModule</title>
<path fill="none" stroke="black" d="M1657,-84.81C1657,-107.29 1657,-142.8 1657,-142.8 1657,-142.8 998.36,-142.8 998.36,-142.8"/>
<polygon fill="black" stroke="black" points="998.36,-139.3 988.36,-142.8 998.36,-146.3 998.36,-139.3"/>
</g>
<!-- ConfigurationSummaryModule -->
<g id="node8" class="node">
<title>ConfigurationSummaryModule</title>
<polygon fill="#8dd3c7" stroke="black" points="1595.03,-84.8 1592.03,-88.8 1571.03,-88.8 1568.03,-84.8 1402.97,-84.8 1402.97,-48.8 1595.03,-48.8 1595.03,-84.8"/>
<text text-anchor="middle" x="1499" y="-62.6" font-family="Times,serif" font-size="14.00">ConfigurationSummaryModule</text>
</g>
<!-- ConfigurationSummaryModule&#45;&gt;MyAccountModule -->
<g id="edge7" class="edge">
<title>ConfigurationSummaryModule&#45;&gt;MyAccountModule</title>
<path fill="none" stroke="black" d="M1499,-84.93C1499,-105.37 1499,-135.8 1499,-135.8 1499,-135.8 998.35,-135.8 998.35,-135.8"/>
<polygon fill="black" stroke="black" points="998.35,-132.3 988.35,-135.8 998.35,-139.3 998.35,-132.3"/>
</g>
<!-- ConstraintRuleModule -->
<g id="node9" class="node">
<title>ConstraintRuleModule</title>
<polygon fill="#8dd3c7" stroke="black" points="1385.32,-84.8 1382.32,-88.8 1361.32,-88.8 1358.32,-84.8 1240.68,-84.8 1240.68,-48.8 1385.32,-48.8 1385.32,-84.8"/>
<text text-anchor="middle" x="1313" y="-62.6" font-family="Times,serif" font-size="14.00">ConstraintRuleModule</text>
</g>
<!-- ConstraintRuleModule&#45;&gt;MyAccountModule -->
<g id="edge8" class="edge">
<title>ConstraintRuleModule&#45;&gt;MyAccountModule</title>
<path fill="none" stroke="black" d="M1313,-85.07C1313,-103.36 1313,-128.8 1313,-128.8 1313,-128.8 998.64,-128.8 998.64,-128.8"/>
<polygon fill="black" stroke="black" points="998.64,-125.3 988.64,-128.8 998.64,-132.3 998.64,-125.3"/>
</g>
<!-- DataFilterModule -->
<g id="node10" class="node">
<title>DataFilterModule</title>
<polygon fill="#8dd3c7" stroke="black" points="1223.31,-84.8 1220.31,-88.8 1199.31,-88.8 1196.31,-84.8 1106.69,-84.8 1106.69,-48.8 1223.31,-48.8 1223.31,-84.8"/>
<text text-anchor="middle" x="1165" y="-62.6" font-family="Times,serif" font-size="14.00">DataFilterModule</text>
</g>
<!-- DataFilterModule&#45;&gt;MyAccountModule -->
<g id="edge9" class="edge">
<title>DataFilterModule&#45;&gt;MyAccountModule</title>
<path fill="none" stroke="black" d="M1165,-84.81C1165,-100.85 1165,-121.8 1165,-121.8 1165,-121.8 998.37,-121.8 998.37,-121.8"/>
<polygon fill="black" stroke="black" points="998.37,-118.3 988.37,-121.8 998.37,-125.3 998.37,-118.3"/>
</g>
<!-- PricingModule -->
<g id="node11" class="node">
<title>PricingModule</title>
<polygon fill="#8dd3c7" stroke="black" points="1088.99,-84.8 1085.99,-88.8 1064.99,-88.8 1061.99,-84.8 989.01,-84.8 989.01,-48.8 1088.99,-48.8 1088.99,-84.8"/>
<text text-anchor="middle" x="1039" y="-62.6" font-family="Times,serif" font-size="14.00">PricingModule</text>
</g>
<!-- PricingModule&#45;&gt;MyAccountModule -->
<g id="edge10" class="edge">
<title>PricingModule&#45;&gt;MyAccountModule</title>
<path fill="none" stroke="black" d="M988.76,-66.8C983.18,-66.8 979.46,-66.8 979.46,-66.8 979.46,-66.8 979.46,-103.69 979.46,-103.69"/>
<polygon fill="black" stroke="black" points="975.96,-103.69 979.46,-113.69 982.96,-103.69 975.96,-103.69"/>
</g>
<!-- TableModule -->
<g id="node12" class="node">
<title>TableModule</title>
<polygon fill="#8dd3c7" stroke="black" points="970.92,-84.8 967.92,-88.8 946.92,-88.8 943.92,-84.8 879.08,-84.8 879.08,-48.8 970.92,-48.8 970.92,-84.8"/>
<text text-anchor="middle" x="925" y="-62.6" font-family="Times,serif" font-size="14.00">TableModule</text>
</g>
<!-- TableModule&#45;&gt;MyAccountModule -->
<g id="edge11" class="edge">
<title>TableModule&#45;&gt;MyAccountModule</title>
<path fill="none" stroke="black" d="M909.76,-84.91C909.76,-84.91 909.76,-103.79 909.76,-103.79"/>
<polygon fill="black" stroke="black" points="906.26,-103.79 909.76,-113.79 913.26,-103.79 906.26,-103.79"/>
</g>
<!-- TableModule&#45;&gt;MyAccountModule -->
<g id="edge12" class="edge">
<title>TableModule&#45;&gt;MyAccountModule</title>
<path fill="none" stroke="black" d="M940.24,-84.91C940.24,-84.91 940.24,-103.79 940.24,-103.79"/>
<polygon fill="black" stroke="black" points="936.74,-103.79 940.24,-113.79 943.74,-103.79 936.74,-103.79"/>
</g>
</g>
</svg>
