<?xml version="1.0" encoding="UTF-8" standalone="no"?>
<!DOCTYPE svg PUBLIC "-//W3C//DTD SVG 1.1//EN"
 "http://www.w3.org/Graphics/SVG/1.1/DTD/svg11.dtd">
<!-- Generated by graphviz version 2.47.3 (20210619.1520)
 -->
<!-- Title: dependencies Pages: 1 -->
<svg width="1727pt" height="174pt"
 viewBox="0.00 0.00 1727.00 173.80" xmlns="http://www.w3.org/2000/svg" xmlns:xlink="http://www.w3.org/1999/xlink">
<g id="graph0" class="graph" transform="scale(1 1) rotate(0) translate(4 169.8)">
<title>dependencies</title>
<polygon fill="white" stroke="transparent" points="-4,4 -4,-169.8 1723,-169.8 1723,4 -4,4"/>
<text text-anchor="middle" x="859.5" y="-8.2" font-family="sans-serif" font-size="14.00">dependencies</text>
<g id="clust1" class="cluster">
<title>cluster_CartsModule</title>
<polygon fill="none" stroke="black" stroke-dasharray="1,5" points="8,-32.8 8,-157.8 1711,-157.8 1711,-32.8 8,-32.8"/>
</g>
<g id="clust2" class="cluster">
<title>cluster_CartsModule_declarations</title>
<polygon fill="none" stroke="black" points="1068,-40.8 1068,-92.8 1703,-92.8 1703,-40.8 1068,-40.8"/>
</g>
<g id="clust7" class="cluster">
<title>cluster_CartsModule_imports</title>
<polygon fill="none" stroke="black" points="16,-40.8 16,-92.8 1060,-92.8 1060,-40.8 16,-40.8"/>
</g>
<!-- CartDetailComponent -->
<g id="node1" class="node">
<title>CartDetailComponent</title>
<polygon fill="#ffffb3" stroke="black" points="1694.64,-84.8 1555.36,-84.8 1555.36,-48.8 1694.64,-48.8 1694.64,-84.8"/>
<text text-anchor="middle" x="1625" y="-62.6" font-family="Times,serif" font-size="14.00">CartDetailComponent</text>
</g>
<!-- CartsModule -->
<g id="node5" class="node">
<title>CartsModule</title>
<polygon fill="#8dd3c7" stroke="black" points="923.6,-149.8 920.6,-153.8 899.6,-153.8 896.6,-149.8 834.4,-149.8 834.4,-113.8 923.6,-113.8 923.6,-149.8"/>
<text text-anchor="middle" x="879" y="-127.6" font-family="Times,serif" font-size="14.00">CartsModule</text>
</g>
<!-- CartDetailComponent&#45;&gt;CartsModule -->
<g id="edge1" class="edge">
<title>CartDetailComponent&#45;&gt;CartsModule</title>
<path fill="none" stroke="black" d="M1625,-84.89C1625,-107.93 1625,-144.8 1625,-144.8 1625,-144.8 933.71,-144.8 933.71,-144.8"/>
<polygon fill="black" stroke="black" points="933.71,-141.3 923.71,-144.8 933.71,-148.3 933.71,-141.3"/>
</g>
<!-- CartListComponent -->
<g id="node2" class="node">
<title>CartListComponent</title>
<polygon fill="#ffffb3" stroke="black" points="1537.71,-84.8 1410.29,-84.8 1410.29,-48.8 1537.71,-48.8 1537.71,-84.8"/>
<text text-anchor="middle" x="1474" y="-62.6" font-family="Times,serif" font-size="14.00">CartListComponent</text>
</g>
<!-- CartListComponent&#45;&gt;CartsModule -->
<g id="edge2" class="edge">
<title>CartListComponent&#45;&gt;CartsModule</title>
<path fill="none" stroke="black" d="M1474,-85.08C1474,-106.12 1474,-137.8 1474,-137.8 1474,-137.8 933.72,-137.8 933.72,-137.8"/>
<polygon fill="black" stroke="black" points="933.72,-134.3 923.72,-137.8 933.72,-141.3 933.72,-134.3"/>
</g>
<!-- CartSummaryComponent -->
<g id="node3" class="node">
<title>CartSummaryComponent</title>
<polygon fill="#ffffb3" stroke="black" points="1391.87,-84.8 1232.13,-84.8 1232.13,-48.8 1391.87,-48.8 1391.87,-84.8"/>
<text text-anchor="middle" x="1312" y="-62.6" font-family="Times,serif" font-size="14.00">CartSummaryComponent</text>
</g>
<!-- CartSummaryComponent&#45;&gt;CartsModule -->
<g id="edge3" class="edge">
<title>CartSummaryComponent&#45;&gt;CartsModule</title>
<path fill="none" stroke="black" d="M1312,-84.91C1312,-104.14 1312,-131.8 1312,-131.8 1312,-131.8 933.71,-131.8 933.71,-131.8"/>
<polygon fill="black" stroke="black" points="933.71,-128.3 923.71,-131.8 933.71,-135.3 933.71,-128.3"/>
</g>
<!-- CartTableComponent -->
<g id="node4" class="node">
<title>CartTableComponent</title>
<polygon fill="#ffffb3" stroke="black" points="1213.81,-84.8 1076.19,-84.8 1076.19,-48.8 1213.81,-48.8 1213.81,-84.8"/>
<text text-anchor="middle" x="1145" y="-62.6" font-family="Times,serif" font-size="14.00">CartTableComponent</text>
</g>
<!-- CartTableComponent&#45;&gt;CartsModule -->
<g id="edge4" class="edge">
<title>CartTableComponent&#45;&gt;CartsModule</title>
<path fill="none" stroke="black" d="M1145,-84.82C1145,-102.17 1145,-125.8 1145,-125.8 1145,-125.8 933.82,-125.8 933.82,-125.8"/>
<polygon fill="black" stroke="black" points="933.82,-122.3 923.82,-125.8 933.82,-129.3 933.82,-122.3"/>
</g>
<!-- AlertModule -->
<g id="node6" class="node">
<title>AlertModule</title>
<polygon fill="#8dd3c7" stroke="black" points="1052.31,-84.8 1049.31,-88.8 1028.31,-88.8 1025.31,-84.8 963.69,-84.8 963.69,-48.8 1052.31,-48.8 1052.31,-84.8"/>
<text text-anchor="middle" x="1008" y="-62.6" font-family="Times,serif" font-size="14.00">AlertModule</text>
</g>
<!-- AlertModule&#45;&gt;CartsModule -->
<g id="edge5" class="edge">
<title>AlertModule&#45;&gt;CartsModule</title>
<path fill="none" stroke="black" d="M1008,-85.04C1008,-100.37 1008,-119.8 1008,-119.8 1008,-119.8 933.76,-119.8 933.76,-119.8"/>
<polygon fill="black" stroke="black" points="933.76,-116.3 923.76,-119.8 933.76,-123.3 933.76,-116.3"/>
</g>
<!-- CartsRoutingModule -->
<g id="node7" class="node">
<title>CartsRoutingModule</title>
<polygon fill="#8dd3c7" stroke="black" points="946.21,-84.8 943.21,-88.8 922.21,-88.8 919.21,-84.8 811.79,-84.8 811.79,-48.8 946.21,-48.8 946.21,-84.8"/>
<text text-anchor="middle" x="879" y="-62.6" font-family="Times,serif" font-size="14.00">CartsRoutingModule</text>
</g>
<!-- CartsRoutingModule&#45;&gt;CartsModule -->
<g id="edge6" class="edge">
<title>CartsRoutingModule&#45;&gt;CartsModule</title>
<path fill="none" stroke="black" d="M879,-84.91C879,-84.91 879,-103.79 879,-103.79"/>
<polygon fill="black" stroke="black" points="875.5,-103.79 879,-113.79 882.5,-103.79 875.5,-103.79"/>
</g>
<!-- ConfigurationSummaryModule -->
<g id="node8" class="node">
<title>ConfigurationSummaryModule</title>
<polygon fill="#8dd3c7" stroke="black" points="794.03,-84.8 791.03,-88.8 770.03,-88.8 767.03,-84.8 601.97,-84.8 601.97,-48.8 794.03,-48.8 794.03,-84.8"/>
<text text-anchor="middle" x="698" y="-62.6" font-family="Times,serif" font-size="14.00">ConfigurationSummaryModule</text>
</g>
<!-- ConfigurationSummaryModule&#45;&gt;CartsModule -->
<g id="edge7" class="edge">
<title>ConfigurationSummaryModule&#45;&gt;CartsModule</title>
<path fill="none" stroke="black" d="M698,-85.04C698,-100.37 698,-119.8 698,-119.8 698,-119.8 824.26,-119.8 824.26,-119.8"/>
<polygon fill="black" stroke="black" points="824.26,-123.3 834.26,-119.8 824.26,-116.3 824.26,-123.3"/>
</g>
<!-- ConstraintRuleModule -->
<g id="node9" class="node">
<title>ConstraintRuleModule</title>
<polygon fill="#8dd3c7" stroke="black" points="584.32,-84.8 581.32,-88.8 560.32,-88.8 557.32,-84.8 439.68,-84.8 439.68,-48.8 584.32,-48.8 584.32,-84.8"/>
<text text-anchor="middle" x="512" y="-62.6" font-family="Times,serif" font-size="14.00">ConstraintRuleModule</text>
</g>
<!-- ConstraintRuleModule&#45;&gt;CartsModule -->
<g id="edge8" class="edge">
<title>ConstraintRuleModule&#45;&gt;CartsModule</title>
<path fill="none" stroke="black" d="M512,-84.82C512,-102.17 512,-125.8 512,-125.8 512,-125.8 824.37,-125.8 824.37,-125.8"/>
<polygon fill="black" stroke="black" points="824.37,-129.3 834.37,-125.8 824.37,-122.3 824.37,-129.3"/>
</g>
<!-- LineItemTableRowModule -->
<g id="node10" class="node">
<title>LineItemTableRowModule</title>
<polygon fill="#8dd3c7" stroke="black" points="421.68,-84.8 418.68,-88.8 397.68,-88.8 394.68,-84.8 252.32,-84.8 252.32,-48.8 421.68,-48.8 421.68,-84.8"/>
<text text-anchor="middle" x="337" y="-62.6" font-family="Times,serif" font-size="14.00">LineItemTableRowModule</text>
</g>
<!-- LineItemTableRowModule&#45;&gt;CartsModule -->
<g id="edge9" class="edge">
<title>LineItemTableRowModule&#45;&gt;CartsModule</title>
<path fill="none" stroke="black" d="M337,-84.91C337,-104.14 337,-131.8 337,-131.8 337,-131.8 824.18,-131.8 824.18,-131.8"/>
<polygon fill="black" stroke="black" points="824.18,-135.3 834.18,-131.8 824.18,-128.3 824.18,-135.3"/>
</g>
<!-- PricingModule -->
<g id="node11" class="node">
<title>PricingModule</title>
<polygon fill="#8dd3c7" stroke="black" points="233.99,-84.8 230.99,-88.8 209.99,-88.8 206.99,-84.8 134.01,-84.8 134.01,-48.8 233.99,-48.8 233.99,-84.8"/>
<text text-anchor="middle" x="184" y="-62.6" font-family="Times,serif" font-size="14.00">PricingModule</text>
</g>
<!-- PricingModule&#45;&gt;CartsModule -->
<g id="edge10" class="edge">
<title>PricingModule&#45;&gt;CartsModule</title>
<path fill="none" stroke="black" d="M184,-85.08C184,-106.12 184,-137.8 184,-137.8 184,-137.8 824.2,-137.8 824.2,-137.8"/>
<polygon fill="black" stroke="black" points="824.2,-141.3 834.2,-137.8 824.2,-134.3 824.2,-141.3"/>
</g>
<!-- TableModule -->
<g id="node12" class="node">
<title>TableModule</title>
<polygon fill="#8dd3c7" stroke="black" points="115.92,-84.8 112.92,-88.8 91.92,-88.8 88.92,-84.8 24.08,-84.8 24.08,-48.8 115.92,-48.8 115.92,-84.8"/>
<text text-anchor="middle" x="70" y="-62.6" font-family="Times,serif" font-size="14.00">TableModule</text>
</g>
<!-- TableModule&#45;&gt;CartsModule -->
<g id="edge11" class="edge">
<title>TableModule&#45;&gt;CartsModule</title>
<path fill="none" stroke="black" d="M70,-84.89C70,-107.93 70,-144.8 70,-144.8 70,-144.8 824.35,-144.8 824.35,-144.8"/>
<polygon fill="black" stroke="black" points="824.35,-148.3 834.35,-144.8 824.35,-141.3 824.35,-148.3"/>
</g>
</g>
</svg>
