<?xml version="1.0" encoding="UTF-8" standalone="no"?>
<!DOCTYPE svg PUBLIC "-//W3C//DTD SVG 1.1//EN"
 "http://www.w3.org/Graphics/SVG/1.1/DTD/svg11.dtd">
<!-- Generated by graphviz version 2.47.3 (20210619.1520)
 -->
<!-- Title: dependencies Pages: 1 -->
<svg width="307pt" height="174pt"
 viewBox="0.00 0.00 307.00 173.80" xmlns="http://www.w3.org/2000/svg" xmlns:xlink="http://www.w3.org/1999/xlink">
<g id="graph0" class="graph" transform="scale(1 1) rotate(0) translate(4 169.8)">
<title>dependencies</title>
<polygon fill="white" stroke="transparent" points="-4,4 -4,-169.8 303,-169.8 303,4 -4,4"/>
<text text-anchor="middle" x="149.5" y="-8.2" font-family="sans-serif" font-size="14.00">dependencies</text>
<g id="clust1" class="cluster">
<title>cluster_AssetModule</title>
<polygon fill="none" stroke="black" stroke-dasharray="1,5" points="8,-32.8 8,-157.8 291,-157.8 291,-32.8 8,-32.8"/>
</g>
<g id="clust3" class="cluster">
<title>cluster_AssetModule_imports</title>
<polygon fill="none" stroke="black" points="16,-40.8 16,-92.8 283,-92.8 283,-40.8 16,-40.8"/>
</g>
<!-- AssetsRoutingModule -->
<g id="node1" class="node">
<title>AssetsRoutingModule</title>
<polygon fill="#8dd3c7" stroke="black" points="274.71,-84.8 271.71,-88.8 250.71,-88.8 247.71,-84.8 133.29,-84.8 133.29,-48.8 274.71,-48.8 274.71,-84.8"/>
<text text-anchor="middle" x="204" y="-62.6" font-family="Times,serif" font-size="14.00">AssetsRoutingModule</text>
</g>
<!-- AssetModule -->
<g id="node3" class="node">
<title>AssetModule</title>
<polygon fill="#8dd3c7" stroke="black" points="182.15,-149.8 179.15,-153.8 158.15,-153.8 155.15,-149.8 91.85,-149.8 91.85,-113.8 182.15,-113.8 182.15,-149.8"/>
<text text-anchor="middle" x="137" y="-127.6" font-family="Times,serif" font-size="14.00">AssetModule</text>
</g>
<!-- AssetsRoutingModule&#45;&gt;AssetModule -->
<g id="edge1" class="edge">
<title>AssetsRoutingModule&#45;&gt;AssetModule</title>
<path fill="none" stroke="black" d="M157.86,-84.91C157.86,-84.91 157.86,-103.79 157.86,-103.79"/>
<polygon fill="black" stroke="black" points="154.36,-103.79 157.86,-113.79 161.36,-103.79 154.36,-103.79"/>
</g>
<!-- TableModule -->
<g id="node2" class="node">
<title>TableModule</title>
<polygon fill="#8dd3c7" stroke="black" points="115.92,-84.8 112.92,-88.8 91.92,-88.8 88.92,-84.8 24.08,-84.8 24.08,-48.8 115.92,-48.8 115.92,-84.8"/>
<text text-anchor="middle" x="70" y="-62.6" font-family="Times,serif" font-size="14.00">TableModule</text>
</g>
<!-- TableModule&#45;&gt;AssetModule -->
<g id="edge2" class="edge">
<title>TableModule&#45;&gt;AssetModule</title>
<path fill="none" stroke="black" d="M103.69,-84.91C103.69,-84.91 103.69,-103.79 103.69,-103.79"/>
<polygon fill="black" stroke="black" points="100.19,-103.79 103.69,-113.79 107.19,-103.79 100.19,-103.79"/>
</g>
</g>
</svg>
