<?xml version="1.0" encoding="UTF-8" standalone="no"?>
<!DOCTYPE svg PUBLIC "-//W3C//DTD SVG 1.1//EN"
 "http://www.w3.org/Graphics/SVG/1.1/DTD/svg11.dtd">
<!-- Generated by graphviz version 2.47.3 (20210619.1520)
 -->
<!-- Title: dependencies Pages: 1 -->
<svg width="580pt" height="247pt"
 viewBox="0.00 0.00 580.00 246.80" xmlns="http://www.w3.org/2000/svg" xmlns:xlink="http://www.w3.org/1999/xlink">
<g id="graph0" class="graph" transform="scale(1 1) rotate(0) translate(4 242.8)">
<title>dependencies</title>
<polygon fill="white" stroke="transparent" points="-4,4 -4,-242.8 576,-242.8 576,4 -4,4"/>
<text text-anchor="middle" x="286" y="-8.2" font-family="sans-serif" font-size="14.00">dependencies</text>
<g id="clust1" class="cluster">
<title>cluster_LineItemTableRowModule</title>
<polygon fill="none" stroke="black" stroke-dasharray="1,5" points="8,-32.8 8,-230.8 564,-230.8 564,-32.8 8,-32.8"/>
</g>
<g id="clust5" class="cluster">
<title>cluster_LineItemTableRowModule_exports</title>
<polygon fill="none" stroke="black" points="133,-170.8 133,-222.8 343,-222.8 343,-170.8 133,-170.8"/>
</g>
<g id="clust2" class="cluster">
<title>cluster_LineItemTableRowModule_declarations</title>
<polygon fill="none" stroke="black" points="350,-40.8 350,-92.8 556,-92.8 556,-40.8 350,-40.8"/>
</g>
<g id="clust4" class="cluster">
<title>cluster_LineItemTableRowModule_imports</title>
<polygon fill="none" stroke="black" points="16,-40.8 16,-92.8 342,-92.8 342,-40.8 16,-40.8"/>
</g>
<!-- LineItemTableRowComponent -->
<g id="node1" class="node">
<title>LineItemTableRowComponent</title>
<polygon fill="#ffffb3" stroke="black" points="548.46,-84.8 357.54,-84.8 357.54,-48.8 548.46,-48.8 548.46,-84.8"/>
<text text-anchor="middle" x="453" y="-62.6" font-family="Times,serif" font-size="14.00">LineItemTableRowComponent</text>
</g>
<!-- LineItemTableRowModule -->
<g id="node2" class="node">
<title>LineItemTableRowModule</title>
<polygon fill="#8dd3c7" stroke="black" points="322.68,-149.8 319.68,-153.8 298.68,-153.8 295.68,-149.8 153.32,-149.8 153.32,-113.8 322.68,-113.8 322.68,-149.8"/>
<text text-anchor="middle" x="238" y="-127.6" font-family="Times,serif" font-size="14.00">LineItemTableRowModule</text>
</g>
<!-- LineItemTableRowComponent&#45;&gt;LineItemTableRowModule -->
<g id="edge1" class="edge">
<title>LineItemTableRowComponent&#45;&gt;LineItemTableRowModule</title>
<path fill="none" stroke="black" d="M453,-84.91C453,-104.14 453,-131.8 453,-131.8 453,-131.8 332.67,-131.8 332.67,-131.8"/>
<polygon fill="black" stroke="black" points="332.67,-128.3 322.67,-131.8 332.67,-135.3 332.67,-128.3"/>
</g>
<!-- LineItemTableRowComponent  -->
<g id="node5" class="node">
<title>LineItemTableRowComponent </title>
<polygon fill="#fb8072" stroke="black" points="335.46,-214.8 140.54,-214.8 140.54,-178.8 335.46,-178.8 335.46,-214.8"/>
<text text-anchor="middle" x="238" y="-192.6" font-family="Times,serif" font-size="14.00">LineItemTableRowComponent </text>
</g>
<!-- LineItemTableRowModule&#45;&gt;LineItemTableRowComponent  -->
<g id="edge4" class="edge">
<title>LineItemTableRowModule&#45;&gt;LineItemTableRowComponent </title>
<path fill="none" stroke="black" stroke-dasharray="5,2" d="M238,-149.91C238,-149.91 238,-168.79 238,-168.79"/>
<polygon fill="black" stroke="black" points="234.5,-168.79 238,-178.79 241.5,-168.79 234.5,-168.79"/>
</g>
<!-- ConfigurationSummaryModule -->
<g id="node3" class="node">
<title>ConfigurationSummaryModule</title>
<polygon fill="#8dd3c7" stroke="black" points="334.03,-84.8 331.03,-88.8 310.03,-88.8 307.03,-84.8 141.97,-84.8 141.97,-48.8 334.03,-48.8 334.03,-84.8"/>
<text text-anchor="middle" x="238" y="-62.6" font-family="Times,serif" font-size="14.00">ConfigurationSummaryModule</text>
</g>
<!-- ConfigurationSummaryModule&#45;&gt;LineItemTableRowModule -->
<g id="edge2" class="edge">
<title>ConfigurationSummaryModule&#45;&gt;LineItemTableRowModule</title>
<path fill="none" stroke="black" d="M238,-84.91C238,-84.91 238,-103.79 238,-103.79"/>
<polygon fill="black" stroke="black" points="234.5,-103.79 238,-113.79 241.5,-103.79 234.5,-103.79"/>
</g>
<!-- PricingModule -->
<g id="node4" class="node">
<title>PricingModule</title>
<polygon fill="#8dd3c7" stroke="black" points="123.99,-84.8 120.99,-88.8 99.99,-88.8 96.99,-84.8 24.01,-84.8 24.01,-48.8 123.99,-48.8 123.99,-84.8"/>
<text text-anchor="middle" x="74" y="-62.6" font-family="Times,serif" font-size="14.00">PricingModule</text>
</g>
<!-- PricingModule&#45;&gt;LineItemTableRowModule -->
<g id="edge3" class="edge">
<title>PricingModule&#45;&gt;LineItemTableRowModule</title>
<path fill="none" stroke="black" d="M74,-84.91C74,-104.14 74,-131.8 74,-131.8 74,-131.8 143.12,-131.8 143.12,-131.8"/>
<polygon fill="black" stroke="black" points="143.12,-135.3 153.12,-131.8 143.12,-128.3 143.12,-135.3"/>
</g>
</g>
</svg>
