<?xml version="1.0" encoding="UTF-8" standalone="no"?>
<!DOCTYPE svg PUBLIC "-//W3C//DTD SVG 1.1//EN"
 "http://www.w3.org/Graphics/SVG/1.1/DTD/svg11.dtd">
<!-- Generated by graphviz version 2.47.3 (20210619.1520)
 -->
<!-- Title: dependencies Pages: 1 -->
<svg width="580pt" height="247pt"
 viewBox="0.00 0.00 580.00 246.80" xmlns="http://www.w3.org/2000/svg" xmlns:xlink="http://www.w3.org/1999/xlink">
<g id="graph0" class="graph" transform="scale(1 1) rotate(0) translate(4 242.8)">
<title>dependencies</title>
<polygon fill="white" stroke="transparent" points="-4,4 -4,-242.8 576,-242.8 576,4 -4,4"/>
<text text-anchor="middle" x="286" y="-8.2" font-family="sans-serif" font-size="14.00">dependencies</text>
<g id="clust1" class="cluster">
<title>cluster_LineItemTableRowModule</title>
<polygon fill="none" stroke="black" stroke-dasharray="1,5" points="8,-32.8 8,-230.8 564,-230.8 564,-32.8 8,-32.8"/>
</g>
<g id="clust5" class="cluster">
<title>cluster_LineItemTableRowModule_exports</title>
<polygon fill="none" stroke="black" points="183,-170.8 183,-222.8 393,-222.8 393,-170.8 183,-170.8"/>
</g>
<g id="clust4" class="cluster">
<title>cluster_LineItemTableRowModule_imports</title>
<polygon fill="none" stroke="black" points="230,-40.8 230,-92.8 556,-92.8 556,-40.8 230,-40.8"/>
</g>
<g id="clust2" class="cluster">
<title>cluster_LineItemTableRowModule_declarations</title>
<polygon fill="none" stroke="black" points="16,-40.8 16,-92.8 222,-92.8 222,-40.8 16,-40.8"/>
</g>
<!-- LineItemTableRowComponent -->
<g id="node1" class="node">
<title>LineItemTableRowComponent</title>
<polygon fill="#ffffb3" stroke="black" points="214.46,-84.8 23.54,-84.8 23.54,-48.8 214.46,-48.8 214.46,-84.8"/>
<text text-anchor="middle" x="119" y="-62.6" font-family="Times,serif" font-size="14.00">LineItemTableRowComponent</text>
</g>
<!-- LineItemTableRowModule -->
<g id="node2" class="node">
<title>LineItemTableRowModule</title>
<polygon fill="#8dd3c7" stroke="black" points="372.68,-149.8 369.68,-153.8 348.68,-153.8 345.68,-149.8 203.32,-149.8 203.32,-113.8 372.68,-113.8 372.68,-149.8"/>
<text text-anchor="middle" x="288" y="-127.6" font-family="Times,serif" font-size="14.00">LineItemTableRowModule</text>
</g>
<!-- LineItemTableRowComponent&#45;&gt;LineItemTableRowModule -->
<g id="edge1" class="edge">
<title>LineItemTableRowComponent&#45;&gt;LineItemTableRowModule</title>
<path fill="none" stroke="black" d="M208.95,-84.91C208.95,-84.91 208.95,-103.79 208.95,-103.79"/>
<polygon fill="black" stroke="black" points="205.45,-103.79 208.95,-113.79 212.45,-103.79 205.45,-103.79"/>
</g>
<!-- LineItemTableRowComponent  -->
<g id="node5" class="node">
<title>LineItemTableRowComponent </title>
<polygon fill="#fb8072" stroke="black" points="385.46,-214.8 190.54,-214.8 190.54,-178.8 385.46,-178.8 385.46,-214.8"/>
<text text-anchor="middle" x="288" y="-192.6" font-family="Times,serif" font-size="14.00">LineItemTableRowComponent </text>
</g>
<!-- LineItemTableRowModule&#45;&gt;LineItemTableRowComponent  -->
<g id="edge4" class="edge">
<title>LineItemTableRowModule&#45;&gt;LineItemTableRowComponent </title>
<path fill="none" stroke="black" stroke-dasharray="5,2" d="M288,-149.91C288,-149.91 288,-168.79 288,-168.79"/>
<polygon fill="black" stroke="black" points="284.5,-168.79 288,-178.79 291.5,-168.79 284.5,-168.79"/>
</g>
<!-- ConfigurationSummaryModule -->
<g id="node3" class="node">
<title>ConfigurationSummaryModule</title>
<polygon fill="#8dd3c7" stroke="black" points="548.03,-84.8 545.03,-88.8 524.03,-88.8 521.03,-84.8 355.97,-84.8 355.97,-48.8 548.03,-48.8 548.03,-84.8"/>
<text text-anchor="middle" x="452" y="-62.6" font-family="Times,serif" font-size="14.00">ConfigurationSummaryModule</text>
</g>
<!-- ConfigurationSummaryModule&#45;&gt;LineItemTableRowModule -->
<g id="edge2" class="edge">
<title>ConfigurationSummaryModule&#45;&gt;LineItemTableRowModule</title>
<path fill="none" stroke="black" d="M364.16,-84.91C364.16,-84.91 364.16,-103.79 364.16,-103.79"/>
<polygon fill="black" stroke="black" points="360.66,-103.79 364.16,-113.79 367.66,-103.79 360.66,-103.79"/>
</g>
<!-- PricingModule -->
<g id="node4" class="node">
<title>PricingModule</title>
<polygon fill="#8dd3c7" stroke="black" points="337.99,-84.8 334.99,-88.8 313.99,-88.8 310.99,-84.8 238.01,-84.8 238.01,-48.8 337.99,-48.8 337.99,-84.8"/>
<text text-anchor="middle" x="288" y="-62.6" font-family="Times,serif" font-size="14.00">PricingModule</text>
</g>
<!-- PricingModule&#45;&gt;LineItemTableRowModule -->
<g id="edge3" class="edge">
<title>PricingModule&#45;&gt;LineItemTableRowModule</title>
<path fill="none" stroke="black" d="M288,-84.91C288,-84.91 288,-103.79 288,-103.79"/>
<polygon fill="black" stroke="black" points="284.5,-103.79 288,-113.79 291.5,-103.79 284.5,-103.79"/>
</g>
</g>
</svg>
