<?xml version="1.0" encoding="UTF-8" standalone="no"?>
<!DOCTYPE svg PUBLIC "-//W3C//DTD SVG 1.1//EN"
 "http://www.w3.org/Graphics/SVG/1.1/DTD/svg11.dtd">
<!-- Generated by graphviz version 2.47.3 (20210619.1520)
 -->
<!-- Title: dependencies Pages: 1 -->
<svg width="372pt" height="174pt"
 viewBox="0.00 0.00 372.00 173.80" xmlns="http://www.w3.org/2000/svg" xmlns:xlink="http://www.w3.org/1999/xlink">
<g id="graph0" class="graph" transform="scale(1 1) rotate(0) translate(4 169.8)">
<title>dependencies</title>
<polygon fill="white" stroke="transparent" points="-4,4 -4,-169.8 368,-169.8 368,4 -4,4"/>
<text text-anchor="middle" x="182" y="-8.2" font-family="sans-serif" font-size="14.00">dependencies</text>
<g id="clust1" class="cluster">
<title>cluster_LoginModule</title>
<polygon fill="none" stroke="black" stroke-dasharray="1,5" points="8,-32.8 8,-157.8 356,-157.8 356,-32.8 8,-32.8"/>
</g>
<g id="clust2" class="cluster">
<title>cluster_LoginModule_declarations</title>
<polygon fill="none" stroke="black" points="178,-40.8 178,-92.8 348,-92.8 348,-40.8 178,-40.8"/>
</g>
<g id="clust4" class="cluster">
<title>cluster_LoginModule_imports</title>
<polygon fill="none" stroke="black" points="16,-40.8 16,-92.8 170,-92.8 170,-40.8 16,-40.8"/>
</g>
<!-- LoginLayoutComponent -->
<g id="node1" class="node">
<title>LoginLayoutComponent</title>
<polygon fill="#ffffb3" stroke="black" points="340.43,-84.8 185.57,-84.8 185.57,-48.8 340.43,-48.8 340.43,-84.8"/>
<text text-anchor="middle" x="263" y="-62.6" font-family="Times,serif" font-size="14.00">LoginLayoutComponent</text>
</g>
<!-- LoginModule -->
<g id="node2" class="node">
<title>LoginModule</title>
<polygon fill="#8dd3c7" stroke="black" points="224.49,-149.8 221.49,-153.8 200.49,-153.8 197.49,-149.8 131.51,-149.8 131.51,-113.8 224.49,-113.8 224.49,-149.8"/>
<text text-anchor="middle" x="178" y="-127.6" font-family="Times,serif" font-size="14.00">LoginModule</text>
</g>
<!-- LoginLayoutComponent&#45;&gt;LoginModule -->
<g id="edge1" class="edge">
<title>LoginLayoutComponent&#45;&gt;LoginModule</title>
<path fill="none" stroke="black" d="M205.14,-84.91C205.14,-84.91 205.14,-103.79 205.14,-103.79"/>
<polygon fill="black" stroke="black" points="201.64,-103.79 205.14,-113.79 208.64,-103.79 201.64,-103.79"/>
</g>
<!-- LoginRoutingModule -->
<g id="node3" class="node">
<title>LoginRoutingModule</title>
<polygon fill="#8dd3c7" stroke="black" points="162.11,-84.8 159.11,-88.8 138.11,-88.8 135.11,-84.8 23.89,-84.8 23.89,-48.8 162.11,-48.8 162.11,-84.8"/>
<text text-anchor="middle" x="93" y="-62.6" font-family="Times,serif" font-size="14.00">LoginRoutingModule</text>
</g>
<!-- LoginRoutingModule&#45;&gt;LoginModule -->
<g id="edge2" class="edge">
<title>LoginRoutingModule&#45;&gt;LoginModule</title>
<path fill="none" stroke="black" d="M146.78,-84.91C146.78,-84.91 146.78,-103.79 146.78,-103.79"/>
<polygon fill="black" stroke="black" points="143.28,-103.79 146.78,-113.79 150.28,-103.79 143.28,-103.79"/>
</g>
</g>
</svg>
