<?xml version="1.0" encoding="UTF-8" standalone="no"?>
<!DOCTYPE svg PUBLIC "-//W3C//DTD SVG 1.1//EN"
 "http://www.w3.org/Graphics/SVG/1.1/DTD/svg11.dtd">
<!-- Generated by graphviz version 2.47.3 (20210619.1520)
 -->
<!-- Title: dependencies Pages: 1 -->
<svg width="676pt" height="174pt"
 viewBox="0.00 0.00 676.00 173.80" xmlns="http://www.w3.org/2000/svg" xmlns:xlink="http://www.w3.org/1999/xlink">
<g id="graph0" class="graph" transform="scale(1 1) rotate(0) translate(4 169.8)">
<title>dependencies</title>
<polygon fill="white" stroke="transparent" points="-4,4 -4,-169.8 672,-169.8 672,4 -4,4"/>
<text text-anchor="middle" x="334" y="-8.2" font-family="sans-serif" font-size="14.00">dependencies</text>
<g id="clust1" class="cluster">
<title>cluster_LoginModule</title>
<polygon fill="none" stroke="black" stroke-dasharray="1,5" points="8,-32.8 8,-157.8 660,-157.8 660,-32.8 8,-32.8"/>
</g>
<g id="clust5" class="cluster">
<title>cluster_LoginModule_imports</title>
<polygon fill="none" stroke="black" points="356,-40.8 356,-92.8 652,-92.8 652,-40.8 356,-40.8"/>
</g>
<g id="clust2" class="cluster">
<title>cluster_LoginModule_declarations</title>
<polygon fill="none" stroke="black" points="16,-40.8 16,-92.8 348,-92.8 348,-40.8 16,-40.8"/>
</g>
<!-- LoginViewComponent -->
<g id="node1" class="node">
<title>LoginViewComponent</title>
<polygon fill="#ffffb3" stroke="black" points="339.59,-84.8 194.41,-84.8 194.41,-48.8 339.59,-48.8 339.59,-84.8"/>
<text text-anchor="middle" x="267" y="-62.6" font-family="Times,serif" font-size="14.00">LoginViewComponent</text>
</g>
<!-- LoginModule -->
<g id="node3" class="node">
<title>LoginModule</title>
<polygon fill="#8dd3c7" stroke="black" points="396.49,-149.8 393.49,-153.8 372.49,-153.8 369.49,-149.8 303.51,-149.8 303.51,-113.8 396.49,-113.8 396.49,-149.8"/>
<text text-anchor="middle" x="350" y="-127.6" font-family="Times,serif" font-size="14.00">LoginModule</text>
</g>
<!-- LoginViewComponent&#45;&gt;LoginModule -->
<g id="edge1" class="edge">
<title>LoginViewComponent&#45;&gt;LoginModule</title>
<path fill="none" stroke="black" d="M321.53,-84.91C321.53,-84.91 321.53,-103.79 321.53,-103.79"/>
<polygon fill="black" stroke="black" points="318.03,-103.79 321.53,-113.79 325.03,-103.79 318.03,-103.79"/>
</g>
<!-- LogoutViewComponent -->
<g id="node2" class="node">
<title>LogoutViewComponent</title>
<polygon fill="#ffffb3" stroke="black" points="176.09,-84.8 23.91,-84.8 23.91,-48.8 176.09,-48.8 176.09,-84.8"/>
<text text-anchor="middle" x="100" y="-62.6" font-family="Times,serif" font-size="14.00">LogoutViewComponent</text>
</g>
<!-- LogoutViewComponent&#45;&gt;LoginModule -->
<g id="edge2" class="edge">
<title>LogoutViewComponent&#45;&gt;LoginModule</title>
<path fill="none" stroke="black" d="M100,-84.91C100,-104.14 100,-131.8 100,-131.8 100,-131.8 293.27,-131.8 293.27,-131.8"/>
<polygon fill="black" stroke="black" points="293.27,-135.3 303.27,-131.8 293.27,-128.3 293.27,-135.3"/>
</g>
<!-- LoginFormModule -->
<g id="node4" class="node">
<title>LoginFormModule</title>
<polygon fill="#8dd3c7" stroke="black" points="643.83,-84.8 640.83,-88.8 619.83,-88.8 616.83,-84.8 520.17,-84.8 520.17,-48.8 643.83,-48.8 643.83,-84.8"/>
<text text-anchor="middle" x="582" y="-62.6" font-family="Times,serif" font-size="14.00">LoginFormModule</text>
</g>
<!-- LoginFormModule&#45;&gt;LoginModule -->
<g id="edge3" class="edge">
<title>LoginFormModule&#45;&gt;LoginModule</title>
<path fill="none" stroke="black" d="M582,-84.91C582,-104.14 582,-131.8 582,-131.8 582,-131.8 406.67,-131.8 406.67,-131.8"/>
<polygon fill="black" stroke="black" points="406.67,-128.3 396.67,-131.8 406.67,-135.3 406.67,-128.3"/>
</g>
<!-- LoginRoutingModule -->
<g id="node5" class="node">
<title>LoginRoutingModule</title>
<polygon fill="#8dd3c7" stroke="black" points="502.11,-84.8 499.11,-88.8 478.11,-88.8 475.11,-84.8 363.89,-84.8 363.89,-48.8 502.11,-48.8 502.11,-84.8"/>
<text text-anchor="middle" x="433" y="-62.6" font-family="Times,serif" font-size="14.00">LoginRoutingModule</text>
</g>
<!-- LoginRoutingModule&#45;&gt;LoginModule -->
<g id="edge4" class="edge">
<title>LoginRoutingModule&#45;&gt;LoginModule</title>
<path fill="none" stroke="black" d="M380.22,-84.91C380.22,-84.91 380.22,-103.79 380.22,-103.79"/>
<polygon fill="black" stroke="black" points="376.72,-103.79 380.22,-113.79 383.72,-103.79 376.72,-103.79"/>
</g>
</g>
</svg>
