<?xml version="1.0" encoding="UTF-8" standalone="no"?>
<!DOCTYPE svg PUBLIC "-//W3C//DTD SVG 1.1//EN"
 "http://www.w3.org/Graphics/SVG/1.1/DTD/svg11.dtd">
<!-- Generated by graphviz version 2.47.3 (20210619.1520)
 -->
<!-- Title: dependencies Pages: 1 -->
<svg width="717pt" height="174pt"
 viewBox="0.00 0.00 717.00 173.80" xmlns="http://www.w3.org/2000/svg" xmlns:xlink="http://www.w3.org/1999/xlink">
<g id="graph0" class="graph" transform="scale(1 1) rotate(0) translate(4 169.8)">
<title>dependencies</title>
<polygon fill="white" stroke="transparent" points="-4,4 -4,-169.8 713,-169.8 713,4 -4,4"/>
<text text-anchor="middle" x="354.5" y="-8.2" font-family="sans-serif" font-size="14.00">dependencies</text>
<g id="clust1" class="cluster">
<title>cluster_CheckoutModule</title>
<polygon fill="none" stroke="black" stroke-dasharray="1,5" points="8,-32.8 8,-157.8 701,-157.8 701,-32.8 8,-32.8"/>
</g>
<g id="clust6" class="cluster">
<title>cluster_CheckoutModule_imports</title>
<polygon fill="none" stroke="black" points="485,-40.8 485,-92.8 693,-92.8 693,-40.8 485,-40.8"/>
</g>
<g id="clust2" class="cluster">
<title>cluster_CheckoutModule_declarations</title>
<polygon fill="none" stroke="black" points="16,-40.8 16,-92.8 477,-92.8 477,-40.8 16,-40.8"/>
</g>
<!-- CardFormComponent -->
<g id="node1" class="node">
<title>CardFormComponent</title>
<polygon fill="#ffffb3" stroke="black" points="469.38,-84.8 330.62,-84.8 330.62,-48.8 469.38,-48.8 469.38,-84.8"/>
<text text-anchor="middle" x="400" y="-62.6" font-family="Times,serif" font-size="14.00">CardFormComponent</text>
</g>
<!-- CheckoutModule -->
<g id="node4" class="node">
<title>CheckoutModule</title>
<polygon fill="#8dd3c7" stroke="black" points="378.71,-149.8 375.71,-153.8 354.71,-153.8 351.71,-149.8 265.29,-149.8 265.29,-113.8 378.71,-113.8 378.71,-149.8"/>
<text text-anchor="middle" x="322" y="-127.6" font-family="Times,serif" font-size="14.00">CheckoutModule</text>
</g>
<!-- CardFormComponent&#45;&gt;CheckoutModule -->
<g id="edge1" class="edge">
<title>CardFormComponent&#45;&gt;CheckoutModule</title>
<path fill="none" stroke="black" d="M354.58,-84.91C354.58,-84.91 354.58,-103.79 354.58,-103.79"/>
<polygon fill="black" stroke="black" points="351.08,-103.79 354.58,-113.79 358.08,-103.79 351.08,-103.79"/>
</g>
<!-- CheckoutComponent -->
<g id="node2" class="node">
<title>CheckoutComponent</title>
<polygon fill="#ffffb3" stroke="black" points="312.49,-84.8 177.51,-84.8 177.51,-48.8 312.49,-48.8 312.49,-84.8"/>
<text text-anchor="middle" x="245" y="-62.6" font-family="Times,serif" font-size="14.00">CheckoutComponent</text>
</g>
<!-- CheckoutComponent&#45;&gt;CheckoutModule -->
<g id="edge2" class="edge">
<title>CheckoutComponent&#45;&gt;CheckoutModule</title>
<path fill="none" stroke="black" d="M288.95,-84.91C288.95,-84.91 288.95,-103.79 288.95,-103.79"/>
<polygon fill="black" stroke="black" points="285.45,-103.79 288.95,-113.79 292.45,-103.79 285.45,-103.79"/>
</g>
<!-- SummaryComponent -->
<g id="node3" class="node">
<title>SummaryComponent</title>
<polygon fill="#ffffb3" stroke="black" points="159.77,-84.8 24.23,-84.8 24.23,-48.8 159.77,-48.8 159.77,-84.8"/>
<text text-anchor="middle" x="92" y="-62.6" font-family="Times,serif" font-size="14.00">SummaryComponent</text>
</g>
<!-- SummaryComponent&#45;&gt;CheckoutModule -->
<g id="edge3" class="edge">
<title>SummaryComponent&#45;&gt;CheckoutModule</title>
<path fill="none" stroke="black" d="M92,-84.91C92,-104.14 92,-131.8 92,-131.8 92,-131.8 255.15,-131.8 255.15,-131.8"/>
<polygon fill="black" stroke="black" points="255.15,-135.3 265.15,-131.8 255.15,-128.3 255.15,-135.3"/>
</g>
<!-- ConfigurationSummaryModule -->
<g id="node5" class="node">
<title>ConfigurationSummaryModule</title>
<polygon fill="#8dd3c7" stroke="black" points="685.03,-84.8 682.03,-88.8 661.03,-88.8 658.03,-84.8 492.97,-84.8 492.97,-48.8 685.03,-48.8 685.03,-84.8"/>
<text text-anchor="middle" x="589" y="-62.6" font-family="Times,serif" font-size="14.00">ConfigurationSummaryModule</text>
</g>
<!-- ConfigurationSummaryModule&#45;&gt;CheckoutModule -->
<g id="edge4" class="edge">
<title>ConfigurationSummaryModule&#45;&gt;CheckoutModule</title>
<path fill="none" stroke="black" d="M589,-84.91C589,-104.14 589,-131.8 589,-131.8 589,-131.8 388.62,-131.8 388.62,-131.8"/>
<polygon fill="black" stroke="black" points="388.62,-128.3 378.62,-131.8 388.62,-135.3 388.62,-128.3"/>
</g>
</g>
</svg>
