<?xml version="1.0" encoding="UTF-8" standalone="no"?>
<!DOCTYPE svg PUBLIC "-//W3C//DTD SVG 1.1//EN"
 "http://www.w3.org/Graphics/SVG/1.1/DTD/svg11.dtd">
<!-- Generated by graphviz version 2.47.3 (20210619.1520)
 -->
<!-- Title: dependencies Pages: 1 -->
<svg width="1611pt" height="174pt"
 viewBox="0.00 0.00 1611.00 173.80" xmlns="http://www.w3.org/2000/svg" xmlns:xlink="http://www.w3.org/1999/xlink">
<g id="graph0" class="graph" transform="scale(1 1) rotate(0) translate(4 169.8)">
<title>dependencies</title>
<polygon fill="white" stroke="transparent" points="-4,4 -4,-169.8 1607,-169.8 1607,4 -4,4"/>
<text text-anchor="middle" x="801.5" y="-8.2" font-family="sans-serif" font-size="14.00">dependencies</text>
<g id="clust1" class="cluster">
<title>cluster_AssetsModule</title>
<polygon fill="none" stroke="black" stroke-dasharray="1,5" points="8,-32.8 8,-157.8 1595,-157.8 1595,-32.8 8,-32.8"/>
</g>
<g id="clust2" class="cluster">
<title>cluster_AssetsModule_declarations</title>
<polygon fill="none" stroke="black" points="812,-40.8 812,-92.8 1587,-92.8 1587,-40.8 812,-40.8"/>
</g>
<g id="clust7" class="cluster">
<title>cluster_AssetsModule_imports</title>
<polygon fill="none" stroke="black" points="16,-40.8 16,-92.8 804,-92.8 804,-40.8 16,-40.8"/>
</g>
<!-- AssetActionFilterComponent -->
<g id="node1" class="node">
<title>AssetActionFilterComponent</title>
<polygon fill="#ffffb3" stroke="black" points="1579.37,-84.8 1398.63,-84.8 1398.63,-48.8 1579.37,-48.8 1579.37,-84.8"/>
<text text-anchor="middle" x="1489" y="-62.6" font-family="Times,serif" font-size="14.00">AssetActionFilterComponent</text>
</g>
<!-- AssetsModule -->
<g id="node5" class="node">
<title>AssetsModule</title>
<polygon fill="#8dd3c7" stroke="black" points="733.1,-149.8 730.1,-153.8 709.1,-153.8 706.1,-149.8 636.9,-149.8 636.9,-113.8 733.1,-113.8 733.1,-149.8"/>
<text text-anchor="middle" x="685" y="-127.6" font-family="Times,serif" font-size="14.00">AssetsModule</text>
</g>
<!-- AssetActionFilterComponent&#45;&gt;AssetsModule -->
<g id="edge1" class="edge">
<title>AssetActionFilterComponent&#45;&gt;AssetsModule</title>
<path fill="none" stroke="black" d="M1489,-84.81C1489,-107.29 1489,-142.8 1489,-142.8 1489,-142.8 743.18,-142.8 743.18,-142.8"/>
<polygon fill="black" stroke="black" points="743.18,-139.3 733.18,-142.8 743.18,-146.3 743.18,-139.3"/>
</g>
<!-- PriceTypeFilterComponent -->
<g id="node2" class="node">
<title>PriceTypeFilterComponent</title>
<polygon fill="#ffffb3" stroke="black" points="1380.69,-84.8 1211.31,-84.8 1211.31,-48.8 1380.69,-48.8 1380.69,-84.8"/>
<text text-anchor="middle" x="1296" y="-62.6" font-family="Times,serif" font-size="14.00">PriceTypeFilterComponent</text>
</g>
<!-- PriceTypeFilterComponent&#45;&gt;AssetsModule -->
<g id="edge2" class="edge">
<title>PriceTypeFilterComponent&#45;&gt;AssetsModule</title>
<path fill="none" stroke="black" d="M1296,-84.93C1296,-105.37 1296,-135.8 1296,-135.8 1296,-135.8 743.2,-135.8 743.2,-135.8"/>
<polygon fill="black" stroke="black" points="743.2,-132.3 733.2,-135.8 743.2,-139.3 743.2,-132.3"/>
</g>
<!-- ProductFamilyFilterComponent -->
<g id="node3" class="node">
<title>ProductFamilyFilterComponent</title>
<polygon fill="#ffffb3" stroke="black" points="1193.38,-84.8 998.62,-84.8 998.62,-48.8 1193.38,-48.8 1193.38,-84.8"/>
<text text-anchor="middle" x="1096" y="-62.6" font-family="Times,serif" font-size="14.00">ProductFamilyFilterComponent</text>
</g>
<!-- ProductFamilyFilterComponent&#45;&gt;AssetsModule -->
<g id="edge3" class="edge">
<title>ProductFamilyFilterComponent&#45;&gt;AssetsModule</title>
<path fill="none" stroke="black" d="M1096,-85.07C1096,-103.36 1096,-128.8 1096,-128.8 1096,-128.8 743.36,-128.8 743.36,-128.8"/>
<polygon fill="black" stroke="black" points="743.36,-125.3 733.36,-128.8 743.36,-132.3 743.36,-125.3"/>
</g>
<!-- RenewalFilterComponent -->
<g id="node4" class="node">
<title>RenewalFilterComponent</title>
<polygon fill="#ffffb3" stroke="black" points="980.14,-84.8 819.86,-84.8 819.86,-48.8 980.14,-48.8 980.14,-84.8"/>
<text text-anchor="middle" x="900" y="-62.6" font-family="Times,serif" font-size="14.00">RenewalFilterComponent</text>
</g>
<!-- RenewalFilterComponent&#45;&gt;AssetsModule -->
<g id="edge4" class="edge">
<title>RenewalFilterComponent&#45;&gt;AssetsModule</title>
<path fill="none" stroke="black" d="M900,-84.81C900,-100.85 900,-121.8 900,-121.8 900,-121.8 743.25,-121.8 743.25,-121.8"/>
<polygon fill="black" stroke="black" points="743.25,-118.3 733.25,-121.8 743.25,-125.3 743.25,-118.3"/>
</g>
<!-- AlertModule -->
<g id="node6" class="node">
<title>AlertModule</title>
<polygon fill="#8dd3c7" stroke="black" points="796.31,-84.8 793.31,-88.8 772.31,-88.8 769.31,-84.8 707.69,-84.8 707.69,-48.8 796.31,-48.8 796.31,-84.8"/>
<text text-anchor="middle" x="752" y="-62.6" font-family="Times,serif" font-size="14.00">AlertModule</text>
</g>
<!-- AlertModule&#45;&gt;AssetsModule -->
<g id="edge5" class="edge">
<title>AlertModule&#45;&gt;AssetsModule</title>
<path fill="none" stroke="black" d="M720.45,-84.91C720.45,-84.91 720.45,-103.79 720.45,-103.79"/>
<polygon fill="black" stroke="black" points="716.95,-103.79 720.45,-113.79 723.95,-103.79 716.95,-103.79"/>
</g>
<!-- AssetsRoutingModule -->
<g id="node7" class="node">
<title>AssetsRoutingModule</title>
<polygon fill="#8dd3c7" stroke="black" points="689.71,-84.8 686.71,-88.8 665.71,-88.8 662.71,-84.8 548.29,-84.8 548.29,-48.8 689.71,-48.8 689.71,-84.8"/>
<text text-anchor="middle" x="619" y="-62.6" font-family="Times,serif" font-size="14.00">AssetsRoutingModule</text>
</g>
<!-- AssetsRoutingModule&#45;&gt;AssetsModule -->
<g id="edge6" class="edge">
<title>AssetsRoutingModule&#45;&gt;AssetsModule</title>
<path fill="none" stroke="black" d="M663.28,-84.91C663.28,-84.91 663.28,-103.79 663.28,-103.79"/>
<polygon fill="black" stroke="black" points="659.78,-103.79 663.28,-113.79 666.78,-103.79 659.78,-103.79"/>
</g>
<!-- ConstraintRuleModule -->
<g id="node8" class="node">
<title>ConstraintRuleModule</title>
<polygon fill="#8dd3c7" stroke="black" points="530.32,-84.8 527.32,-88.8 506.32,-88.8 503.32,-84.8 385.68,-84.8 385.68,-48.8 530.32,-48.8 530.32,-84.8"/>
<text text-anchor="middle" x="458" y="-62.6" font-family="Times,serif" font-size="14.00">ConstraintRuleModule</text>
</g>
<!-- ConstraintRuleModule&#45;&gt;AssetsModule -->
<g id="edge7" class="edge">
<title>ConstraintRuleModule&#45;&gt;AssetsModule</title>
<path fill="none" stroke="black" d="M458,-84.81C458,-100.85 458,-121.8 458,-121.8 458,-121.8 626.86,-121.8 626.86,-121.8"/>
<polygon fill="black" stroke="black" points="626.86,-125.3 636.86,-121.8 626.86,-118.3 626.86,-125.3"/>
</g>
<!-- DataFilterModule -->
<g id="node9" class="node">
<title>DataFilterModule</title>
<polygon fill="#8dd3c7" stroke="black" points="368.31,-84.8 365.31,-88.8 344.31,-88.8 341.31,-84.8 251.69,-84.8 251.69,-48.8 368.31,-48.8 368.31,-84.8"/>
<text text-anchor="middle" x="310" y="-62.6" font-family="Times,serif" font-size="14.00">DataFilterModule</text>
</g>
<!-- DataFilterModule&#45;&gt;AssetsModule -->
<g id="edge8" class="edge">
<title>DataFilterModule&#45;&gt;AssetsModule</title>
<path fill="none" stroke="black" d="M310,-85.07C310,-103.36 310,-128.8 310,-128.8 310,-128.8 626.74,-128.8 626.74,-128.8"/>
<polygon fill="black" stroke="black" points="626.74,-132.3 636.74,-128.8 626.74,-125.3 626.74,-132.3"/>
</g>
<!-- PricingModule -->
<g id="node10" class="node">
<title>PricingModule</title>
<polygon fill="#8dd3c7" stroke="black" points="233.99,-84.8 230.99,-88.8 209.99,-88.8 206.99,-84.8 134.01,-84.8 134.01,-48.8 233.99,-48.8 233.99,-84.8"/>
<text text-anchor="middle" x="184" y="-62.6" font-family="Times,serif" font-size="14.00">PricingModule</text>
</g>
<!-- PricingModule&#45;&gt;AssetsModule -->
<g id="edge9" class="edge">
<title>PricingModule&#45;&gt;AssetsModule</title>
<path fill="none" stroke="black" d="M184,-84.93C184,-105.37 184,-135.8 184,-135.8 184,-135.8 626.51,-135.8 626.51,-135.8"/>
<polygon fill="black" stroke="black" points="626.51,-139.3 636.51,-135.8 626.51,-132.3 626.51,-139.3"/>
</g>
<!-- TableModule -->
<g id="node11" class="node">
<title>TableModule</title>
<polygon fill="#8dd3c7" stroke="black" points="115.92,-84.8 112.92,-88.8 91.92,-88.8 88.92,-84.8 24.08,-84.8 24.08,-48.8 115.92,-48.8 115.92,-84.8"/>
<text text-anchor="middle" x="70" y="-62.6" font-family="Times,serif" font-size="14.00">TableModule</text>
</g>
<!-- TableModule&#45;&gt;AssetsModule -->
<g id="edge10" class="edge">
<title>TableModule&#45;&gt;AssetsModule</title>
<path fill="none" stroke="black" d="M70,-84.81C70,-107.29 70,-142.8 70,-142.8 70,-142.8 626.74,-142.8 626.74,-142.8"/>
<polygon fill="black" stroke="black" points="626.74,-146.3 636.74,-142.8 626.74,-139.3 626.74,-146.3"/>
</g>
</g>
</svg>
